<svg xmlns="http://www.w3.org/2000/svg" xmlns:xlink="http://www.w3.org/1999/xlink" width="500" zoomAndPan="magnify" viewBox="0 0 375 374.999991" height="500" preserveAspectRatio="xMidYMid meet" version="1.0"><defs><g/><clipPath id="id1"><path d="M 59.035156 253.433594 L 60.253906 253.433594 L 60.253906 254.652344 L 59.035156 254.652344 Z M 59.035156 253.433594 " clip-rule="nonzero"/></clipPath><clipPath id="id2"><path d="M 8.125 121 L 22 121 L 22 141 L 8.125 141 Z M 8.125 121 " clip-rule="nonzero"/></clipPath><clipPath id="id3"><path d="M 86 189 L 97.375 189 L 97.375 201 L 86 201 Z M 86 189 " clip-rule="nonzero"/></clipPath><clipPath id="id4"><path d="M 86 194 L 97.375 194 L 97.375 195 L 86 195 Z M 86 194 " clip-rule="nonzero"/></clipPath><clipPath id="id5"><path d="M 86 194 L 97.375 194 L 97.375 201 L 86 201 Z M 86 194 " clip-rule="nonzero"/></clipPath></defs><path fill="#b3e5fc" d="M 49.714844 225.664062 C 49.714844 220.480469 53.902344 216.277344 59.0625 216.277344 C 64.226562 216.277344 68.410156 220.480469 68.410156 225.664062 C 68.410156 230.847656 64.226562 244.582031 59.0625 244.582031 C 53.902344 244.582031 49.714844 230.847656 49.714844 225.664062 " fill-opacity="1" fill-rule="nonzero"/><path fill="#b3e5fc" d="M 60.917969 245.796875 C 60.917969 244.628906 61.859375 243.679688 63.027344 243.679688 C 64.191406 243.679688 65.132812 244.628906 65.132812 245.796875 C 65.132812 246.96875 64.191406 247.914062 63.027344 247.914062 C 61.859375 247.914062 60.917969 246.96875 60.917969 245.796875 " fill-opacity="1" fill-rule="nonzero"/><path fill="#b3e5fc" d="M 51.601562 240.746094 C 51.601562 239.578125 52.542969 238.628906 53.710938 238.628906 C 54.875 238.628906 55.816406 239.578125 55.816406 240.746094 C 55.816406 241.917969 54.875 242.863281 53.710938 242.863281 C 52.542969 242.863281 51.601562 241.917969 51.601562 240.746094 " fill-opacity="1" fill-rule="nonzero"/><path fill="#b3e5fc" d="M 56.175781 249.132812 C 56.175781 248.460938 56.714844 247.914062 57.386719 247.914062 C 58.054688 247.914062 58.597656 248.460938 58.597656 249.132812 C 58.597656 249.800781 58.054688 250.347656 57.386719 250.347656 C 56.714844 250.347656 56.175781 249.800781 56.175781 249.132812 " fill-opacity="1" fill-rule="nonzero"/><path fill="#e3f5fd" d="M 54.25 235.542969 C 54.25 234.675781 54.953125 233.96875 55.816406 233.96875 C 56.683594 233.96875 57.386719 234.675781 57.386719 235.542969 C 57.386719 236.410156 56.683594 237.117188 55.816406 237.117188 C 54.953125 237.117188 54.25 236.410156 54.25 235.542969 " fill-opacity="1" fill-rule="nonzero"/><path fill="#e3f5fd" d="M 60.765625 231.621094 C 60.765625 230.367188 61.777344 229.351562 63.027344 229.351562 C 64.273438 229.351562 65.285156 230.367188 65.285156 231.621094 C 65.285156 232.875 64.273438 233.890625 63.027344 233.890625 C 61.777344 233.890625 60.765625 232.875 60.765625 231.621094 " fill-opacity="1" fill-rule="nonzero"/><path fill="#e3f5fd" d="M 58.582031 240.746094 C 58.582031 240.160156 59.054688 239.683594 59.636719 239.683594 C 60.222656 239.683594 60.695312 240.160156 60.695312 240.746094 C 60.695312 241.335938 60.222656 241.808594 59.636719 241.808594 C 59.054688 241.808594 58.582031 241.335938 58.582031 240.746094 " fill-opacity="1" fill-rule="nonzero"/><g clip-path="url(#id1)"><path fill="#b3e5fc" d="M 60.207031 254.078125 C 60.207031 253.761719 59.953125 253.507812 59.636719 253.507812 C 59.324219 253.507812 59.070312 253.761719 59.070312 254.078125 C 59.070312 254.394531 59.324219 254.652344 59.636719 254.652344 C 59.953125 254.652344 60.207031 254.394531 60.207031 254.078125 " fill-opacity="1" fill-rule="nonzero"/></g><path fill="#b3e5fc" d="M 62.355469 239.019531 C 62.355469 237.480469 63.601562 236.234375 65.132812 236.234375 C 66.667969 236.234375 67.910156 237.480469 67.910156 239.019531 C 67.910156 240.5625 66.667969 241.808594 65.132812 241.808594 C 63.601562 241.808594 62.355469 240.5625 62.355469 239.019531 " fill-opacity="1" fill-rule="nonzero"/><path fill="#6ca4ff" d="M 13.503906 133.617188 L 18.523438 132.082031 L 26.636719 158.839844 L 21.613281 160.375 L 13.503906 133.617188 " fill-opacity="1" fill-rule="nonzero"/><path fill="#6ca4ff" d="M 26.058594 160.050781 L 22.867188 164.234375 L 44.984375 181.238281 L 48.175781 177.054688 L 26.058594 160.050781 " fill-opacity="1" fill-rule="nonzero"/><g clip-path="url(#id2)"><path fill="#474ca8" d="M 21.246094 126.042969 C 20.503906 122.609375 17.128906 120.433594 13.710938 121.179688 C 10.292969 121.929688 8.125 125.316406 8.871094 128.75 C 9.617188 132.179688 14.496094 141.292969 17.914062 140.546875 C 21.332031 139.796875 21.992188 129.472656 21.246094 126.042969 " fill-opacity="1" fill-rule="nonzero"/></g><path fill="#537de6" d="M 17.503906 140.589844 C 17.335938 140.589844 17.160156 140.566406 16.988281 140.527344 C 17.160156 140.566406 17.335938 140.589844 17.503906 140.589844 C 17.644531 140.589844 17.777344 140.574219 17.914062 140.546875 C 17.777344 140.574219 17.644531 140.589844 17.503906 140.589844 M 17.917969 140.542969 L 17.917969 140.542969 M 17.921875 140.542969 C 17.925781 140.542969 17.925781 140.542969 17.925781 140.542969 C 17.925781 140.542969 17.921875 140.542969 17.921875 140.542969 M 17.929688 140.542969 L 17.929688 140.542969 M 17.933594 140.539062 L 17.933594 140.539062 M 16.984375 140.527344 C 16.984375 140.523438 16.984375 140.523438 16.980469 140.523438 C 16.984375 140.523438 16.984375 140.527344 16.984375 140.527344 M 16.980469 140.523438 C 16.980469 140.523438 16.976562 140.523438 16.976562 140.523438 C 16.976562 140.523438 16.980469 140.523438 16.980469 140.523438 M 16.976562 140.523438 C 16.972656 140.523438 16.972656 140.523438 16.972656 140.523438 C 16.972656 140.523438 16.972656 140.523438 16.976562 140.523438 M 16.96875 140.523438 C 16.96875 140.523438 16.96875 140.523438 16.964844 140.523438 C 16.96875 140.523438 16.96875 140.523438 16.96875 140.523438 M 16.964844 140.519531 C 16.964844 140.519531 16.960938 140.519531 16.960938 140.519531 C 16.960938 140.519531 16.964844 140.519531 16.964844 140.519531 M 16.957031 140.519531 L 16.957031 140.519531 M 16.953125 140.515625 C 16.953125 140.515625 16.953125 140.515625 16.949219 140.515625 C 16.953125 140.515625 16.953125 140.515625 16.953125 140.515625 " fill-opacity="1" fill-rule="nonzero"/><path fill="#373a98" d="M 17.503906 140.589844 C 17.335938 140.589844 17.160156 140.566406 16.988281 140.527344 L 16.984375 140.527344 C 16.984375 140.527344 16.984375 140.523438 16.980469 140.523438 C 16.980469 140.523438 16.976562 140.523438 16.976562 140.523438 C 16.972656 140.523438 16.972656 140.523438 16.972656 140.523438 C 16.972656 140.523438 16.96875 140.523438 16.96875 140.523438 C 16.96875 140.523438 16.96875 140.523438 16.964844 140.523438 C 16.964844 140.519531 16.964844 140.519531 16.964844 140.519531 C 16.964844 140.519531 16.960938 140.519531 16.960938 140.519531 C 16.960938 140.519531 16.960938 140.519531 16.957031 140.519531 C 16.953125 140.519531 16.953125 140.519531 16.953125 140.515625 C 16.953125 140.515625 16.953125 140.515625 16.949219 140.515625 C 15.238281 140.089844 13.316406 137.785156 11.765625 135.230469 C 13.257812 136.492188 14.855469 137.347656 16.378906 137.347656 C 16.65625 137.347656 16.929688 137.320312 17.199219 137.261719 C 18.960938 136.878906 20.316406 135.234375 21.300781 133.144531 C 20.882812 136.671875 19.84375 140.09375 17.941406 140.539062 C 17.9375 140.539062 17.9375 140.539062 17.933594 140.539062 C 17.933594 140.539062 17.929688 140.542969 17.929688 140.542969 C 17.925781 140.542969 17.925781 140.542969 17.925781 140.542969 C 17.925781 140.542969 17.925781 140.542969 17.921875 140.542969 C 17.921875 140.542969 17.921875 140.542969 17.917969 140.542969 C 17.917969 140.546875 17.914062 140.546875 17.914062 140.546875 C 17.777344 140.574219 17.644531 140.589844 17.503906 140.589844 " fill-opacity="1" fill-rule="nonzero"/><path fill="#474ca8" d="M 19 162.597656 C 19 159.585938 21.433594 157.144531 24.433594 157.144531 C 27.429688 157.144531 29.863281 159.585938 29.863281 162.597656 C 29.863281 165.605469 27.429688 168.046875 24.433594 168.046875 C 21.433594 168.046875 19 165.605469 19 162.597656 " fill-opacity="1" fill-rule="nonzero"/><path fill="#c5c3e6" d="M 29.863281 162.597656 C 29.863281 162.59375 29.863281 162.589844 29.863281 162.589844 C 29.863281 162.589844 29.863281 162.59375 29.863281 162.597656 M 19 162.597656 C 19 162.59375 19 162.589844 19 162.589844 C 19 162.589844 19 162.59375 19 162.597656 " fill-opacity="1" fill-rule="nonzero"/><path fill="#373a98" d="M 24.433594 168.046875 C 21.433594 168.046875 19 165.605469 19 162.597656 C 19 162.59375 19 162.589844 19 162.589844 C 19.003906 162.316406 19.027344 162.050781 19.066406 161.789062 C 19.457031 164.417969 21.707031 166.4375 24.433594 166.4375 C 27.15625 166.4375 29.410156 164.417969 29.796875 161.789062 C 29.835938 162.050781 29.863281 162.316406 29.863281 162.589844 C 29.863281 162.589844 29.863281 162.59375 29.863281 162.597656 C 29.863281 162.71875 29.859375 162.84375 29.851562 162.964844 C 29.722656 164.890625 28.597656 166.542969 26.992188 167.40625 C 26.230469 167.816406 25.359375 168.046875 24.433594 168.046875 " fill-opacity="1" fill-rule="nonzero"/><path fill="#636cdf" d="M 27.742188 160.429688 C 27.695312 160.429688 27.648438 160.417969 27.601562 160.402344 C 26.652344 160.039062 25.578125 159.832031 24.433594 159.832031 C 23.289062 159.832031 22.210938 160.039062 21.265625 160.402344 C 21.214844 160.417969 21.167969 160.429688 21.121094 160.429688 C 20.808594 160.429688 20.597656 160.027344 20.84375 159.761719 C 21.738281 158.796875 23.011719 158.1875 24.433594 158.1875 C 25.851562 158.1875 27.125 158.796875 28.019531 159.761719 C 28.265625 160.027344 28.054688 160.429688 27.742188 160.429688 " fill-opacity="1" fill-rule="nonzero"/><path fill="#636cdf" d="M 10.628906 125.917969 C 10.304688 125.917969 10.035156 125.546875 10.234375 125.207031 C 11.023438 123.863281 12.351562 122.835938 13.992188 122.476562 C 14.40625 122.386719 14.824219 122.34375 15.230469 122.34375 C 16.4375 122.34375 17.585938 122.722656 18.542969 123.390625 C 18.921875 123.65625 18.722656 124.242188 18.289062 124.242188 C 18.265625 124.242188 18.242188 124.238281 18.214844 124.234375 C 17.738281 124.164062 17.238281 124.125 16.730469 124.125 C 15.976562 124.125 15.195312 124.207031 14.40625 124.378906 C 13.078125 124.671875 11.882812 125.179688 10.878906 125.839844 C 10.796875 125.894531 10.710938 125.917969 10.628906 125.917969 " fill-opacity="1" fill-rule="nonzero"/><path fill="#474ca8" d="M 56.132812 179.253906 C 56.132812 174.632812 52.402344 170.890625 47.800781 170.890625 C 43.203125 170.890625 39.472656 174.632812 39.472656 179.253906 C 39.472656 183.875 43.203125 187.617188 47.800781 187.617188 C 52.402344 187.617188 56.132812 183.875 56.132812 179.253906 " fill-opacity="1" fill-rule="nonzero"/><path fill="#6ca4ff" d="M 93.90625 193.28125 L 90.324219 197.128906 L 69.964844 178.039062 L 73.546875 174.1875 L 93.90625 193.28125 " fill-opacity="1" fill-rule="nonzero"/><path fill="#6ca4ff" d="M 73.738281 213.980469 L 70.300781 210 L 91.347656 191.679688 L 94.789062 195.660156 L 73.738281 213.980469 " fill-opacity="1" fill-rule="nonzero"/><path fill="#474ca8" d="M 62.210938 179.253906 C 62.210938 174.632812 65.941406 170.890625 70.542969 170.890625 C 75.140625 170.890625 78.871094 174.632812 78.871094 179.253906 C 78.871094 183.875 75.140625 187.617188 70.542969 187.617188 C 65.941406 187.617188 62.210938 183.875 62.210938 179.253906 " fill-opacity="1" fill-rule="nonzero"/><path fill="#373a98" d="M 73.296875 187.152344 C 71.585938 182.34375 69.476562 177.757812 67.09375 174.347656 C 67.160156 174.410156 69.355469 176.492188 70.957031 179.253906 C 71.703125 180.53125 72.464844 181.777344 73.078125 182.753906 C 73.4375 183.332031 74.0625 183.652344 74.6875 183.652344 C 75.082031 183.652344 75.472656 183.527344 75.800781 183.257812 C 77.367188 181.972656 78.460938 180.121094 78.769531 178.015625 C 78.832031 178.417969 78.871094 178.824219 78.871094 179.242188 C 78.871094 179.246094 78.871094 179.25 78.871094 179.253906 C 78.871094 182.902344 76.542969 186.007812 73.296875 187.152344 " fill-opacity="1" fill-rule="nonzero"/><path fill="#373a98" d="M 44.855469 187.078125 C 41.722656 185.878906 39.496094 182.828125 39.496094 179.253906 C 39.496094 178.832031 39.539062 178.421875 39.597656 178.015625 C 39.90625 180.121094 40.996094 181.972656 42.558594 183.257812 C 42.886719 183.527344 43.277344 183.652344 43.667969 183.652344 C 44.292969 183.652344 44.914062 183.332031 45.273438 182.753906 C 45.886719 181.777344 46.644531 180.53125 47.386719 179.253906 C 48.453125 177.410156 49.78125 175.871094 50.566406 175.03125 C 48.386719 178.339844 46.449219 182.613281 44.855469 187.078125 " fill-opacity="1" fill-rule="nonzero"/><g clip-path="url(#id3)"><path fill="#474ca8" d="M 86.515625 194.964844 C 86.515625 191.953125 88.945312 189.511719 91.945312 189.511719 C 94.945312 189.511719 97.375 191.953125 97.375 194.964844 C 97.375 197.976562 94.945312 200.417969 91.945312 200.417969 C 88.945312 200.417969 86.515625 197.976562 86.515625 194.964844 " fill-opacity="1" fill-rule="nonzero"/></g><g clip-path="url(#id4)"><path fill="#c5c3e6" d="M 97.375 194.964844 C 97.375 194.964844 97.375 194.960938 97.375 194.957031 C 97.375 194.960938 97.375 194.964844 97.375 194.964844 M 86.515625 194.964844 C 86.515625 194.964844 86.515625 194.960938 86.515625 194.957031 C 86.515625 194.960938 86.515625 194.964844 86.515625 194.964844 " fill-opacity="1" fill-rule="nonzero"/></g><g clip-path="url(#id5)"><path fill="#373a98" d="M 91.945312 200.417969 C 91.910156 200.417969 91.875 200.417969 91.839844 200.417969 C 88.890625 200.359375 86.515625 197.941406 86.515625 194.964844 C 86.515625 194.964844 86.515625 194.960938 86.515625 194.957031 C 86.515625 194.6875 86.539062 194.421875 86.578125 194.160156 C 86.96875 196.785156 89.21875 198.804688 91.945312 198.804688 C 94.671875 198.804688 96.921875 196.785156 97.308594 194.160156 C 97.347656 194.421875 97.375 194.6875 97.375 194.957031 C 97.375 194.960938 97.375 194.964844 97.375 194.964844 C 97.375 197.941406 95 200.359375 92.050781 200.417969 C 92.015625 200.417969 91.980469 200.417969 91.945312 200.417969 " fill-opacity="1" fill-rule="nonzero"/></g><path fill="#636cdf" d="M 95.253906 192.796875 C 95.210938 192.796875 95.160156 192.789062 95.113281 192.769531 C 94.167969 192.40625 93.089844 192.203125 91.945312 192.203125 C 90.800781 192.203125 89.722656 192.40625 88.777344 192.769531 C 88.726562 192.789062 88.679688 192.796875 88.632812 192.796875 C 88.320312 192.796875 88.113281 192.398438 88.355469 192.132812 C 89.25 191.164062 90.527344 190.558594 91.945312 190.558594 C 93.363281 190.558594 94.640625 191.164062 95.535156 192.132812 C 95.777344 192.398438 95.570312 192.796875 95.253906 192.796875 " fill-opacity="1" fill-rule="nonzero"/><path fill="#6ca4ff" d="M 77.894531 208.621094 C 77.894531 219.066406 69.464844 227.53125 59.0625 227.53125 C 48.664062 227.53125 40.230469 219.066406 40.230469 208.621094 C 40.230469 198.179688 48.664062 168.605469 59.0625 168.605469 C 69.464844 168.605469 77.894531 198.179688 77.894531 208.621094 " fill-opacity="1" fill-rule="nonzero"/><path fill="#474ca8" d="M 60.117188 221.25 L 57.917969 221.25 C 57.90625 221.25 57.894531 221.238281 57.894531 221.226562 L 57.894531 194.183594 C 57.894531 194.171875 57.90625 194.160156 57.917969 194.160156 L 60.117188 194.160156 C 60.132812 194.160156 60.144531 194.171875 60.144531 194.183594 L 60.144531 221.226562 C 60.144531 221.238281 60.132812 221.25 60.117188 221.25 " fill-opacity="1" fill-rule="nonzero"/><path fill="#474ca8" d="M 77.894531 208.621094 C 77.894531 204.449219 76.546875 197.21875 74.265625 190.042969 C 71.171875 191.054688 68.996094 194.054688 69.1875 197.460938 L 69.777344 207.972656 L 69.933594 210.78125 C 70.125 214.132812 72.542969 216.851562 75.65625 217.566406 C 77.082031 214.902344 77.894531 211.859375 77.894531 208.621094 " fill-opacity="1" fill-rule="nonzero"/><path fill="#474ca8" d="M 40.230469 208.621094 C 40.230469 204.449219 41.578125 197.21875 43.851562 190.042969 C 46.9375 191.054688 49.109375 194.054688 48.917969 197.460938 L 48.328125 207.972656 L 48.171875 210.78125 C 47.980469 214.132812 45.570312 216.851562 42.464844 217.566406 C 41.042969 214.902344 40.230469 211.859375 40.230469 208.621094 " fill-opacity="1" fill-rule="nonzero"/><path fill="#474ca8" d="M 70.300781 223.769531 C 67.003906 221.800781 63.167969 220.648438 59.0625 220.648438 C 54.957031 220.648438 51.121094 221.800781 47.828125 223.769531 C 50.964844 226.121094 54.847656 227.53125 59.0625 227.53125 C 63.28125 227.53125 67.160156 226.121094 70.300781 223.769531 " fill-opacity="1" fill-rule="nonzero"/><path fill="#8aafe3" d="M 59.082031 227.53125 C 59.085938 227.53125 59.085938 227.53125 59.085938 227.53125 C 59.085938 227.53125 59.085938 227.53125 59.082031 227.53125 M 59.042969 227.53125 C 59.042969 227.53125 59.039062 227.53125 59.039062 227.53125 C 59.042969 227.53125 59.042969 227.53125 59.042969 227.53125 M 59.105469 227.53125 C 59.109375 227.53125 59.109375 227.53125 59.109375 227.53125 C 59.109375 227.53125 59.109375 227.53125 59.105469 227.53125 M 59.128906 227.53125 C 59.132812 227.53125 59.132812 227.53125 59.132812 227.53125 C 59.132812 227.53125 59.128906 227.53125 59.128906 227.53125 M 58.996094 227.53125 C 58.996094 227.53125 58.992188 227.53125 58.992188 227.53125 C 58.996094 227.53125 58.996094 227.53125 58.996094 227.53125 M 59.152344 227.53125 C 59.152344 227.53125 59.15625 227.53125 59.15625 227.53125 C 59.15625 227.53125 59.152344 227.53125 59.152344 227.53125 M 59.175781 227.53125 C 59.175781 227.53125 59.179688 227.53125 59.179688 227.53125 C 59.179688 227.53125 59.175781 227.53125 59.175781 227.53125 M 58.949219 227.53125 L 58.949219 227.53125 M 59.195312 227.53125 C 59.199219 227.53125 59.199219 227.53125 59.203125 227.53125 C 59.203125 227.53125 59.199219 227.53125 59.195312 227.53125 M 59.21875 227.53125 C 59.222656 227.53125 59.222656 227.53125 59.226562 227.53125 C 59.222656 227.53125 59.222656 227.53125 59.21875 227.53125 M 58.90625 227.53125 C 58.902344 227.53125 58.902344 227.53125 58.902344 227.53125 C 58.902344 227.53125 58.902344 227.53125 58.90625 227.53125 M 59.242188 227.53125 C 59.242188 227.53125 59.246094 227.53125 59.25 227.53125 C 59.246094 227.53125 59.246094 227.53125 59.242188 227.53125 M 59.265625 227.53125 C 59.265625 227.53125 59.269531 227.53125 59.273438 227.53125 C 59.269531 227.53125 59.265625 227.53125 59.265625 227.53125 M 58.859375 227.53125 L 58.859375 227.53125 M 59.285156 227.53125 C 59.289062 227.53125 59.292969 227.53125 59.296875 227.53125 C 59.292969 227.53125 59.289062 227.53125 59.285156 227.53125 M 59.308594 227.53125 C 59.3125 227.53125 59.316406 227.53125 59.316406 227.53125 C 59.316406 227.53125 59.3125 227.53125 59.308594 227.53125 M 59.332031 227.527344 C 59.335938 227.527344 59.339844 227.527344 59.34375 227.527344 C 59.339844 227.527344 59.335938 227.527344 59.332031 227.527344 M 59.355469 227.527344 C 59.359375 227.527344 59.363281 227.527344 59.363281 227.527344 C 59.359375 227.527344 59.359375 227.527344 59.355469 227.527344 M 59.375 227.527344 C 59.378906 227.527344 59.382812 227.527344 59.390625 227.527344 C 59.382812 227.527344 59.378906 227.527344 59.375 227.527344 M 59.402344 227.527344 C 59.402344 227.527344 59.40625 227.527344 59.410156 227.527344 C 59.40625 227.527344 59.402344 227.527344 59.402344 227.527344 M 59.421875 227.527344 C 59.425781 227.527344 59.429688 227.527344 59.433594 227.527344 C 59.429688 227.527344 59.425781 227.527344 59.421875 227.527344 M 59.445312 227.527344 C 59.449219 227.527344 59.453125 227.527344 59.457031 227.527344 C 59.453125 227.527344 59.449219 227.527344 59.445312 227.527344 M 59.464844 227.527344 C 59.472656 227.527344 59.472656 227.527344 59.480469 227.527344 C 59.472656 227.527344 59.46875 227.527344 59.464844 227.527344 M 59.492188 227.527344 C 59.496094 227.527344 59.496094 227.527344 59.5 227.527344 C 59.496094 227.527344 59.496094 227.527344 59.492188 227.527344 M 59.511719 227.527344 C 59.515625 227.527344 59.519531 227.527344 59.523438 227.527344 C 59.519531 227.527344 59.515625 227.527344 59.511719 227.527344 M 59.535156 227.523438 C 59.539062 227.523438 59.542969 227.523438 59.546875 227.523438 C 59.542969 227.523438 59.539062 227.523438 59.535156 227.523438 M 59.558594 227.523438 C 59.5625 227.523438 59.566406 227.523438 59.570312 227.523438 C 59.566406 227.523438 59.5625 227.523438 59.558594 227.523438 M 59.582031 227.523438 C 59.585938 227.523438 59.589844 227.523438 59.589844 227.523438 C 59.589844 227.523438 59.585938 227.523438 59.582031 227.523438 M 59.601562 227.523438 C 59.605469 227.523438 59.613281 227.523438 59.617188 227.523438 C 59.613281 227.523438 59.605469 227.523438 59.601562 227.523438 M 59.628906 227.523438 C 59.628906 227.523438 59.632812 227.523438 59.636719 227.523438 C 59.632812 227.523438 59.628906 227.523438 59.628906 227.523438 M 59.648438 227.523438 C 59.652344 227.523438 59.65625 227.523438 59.660156 227.523438 C 59.65625 227.523438 59.652344 227.523438 59.648438 227.523438 M 59.671875 227.523438 C 59.675781 227.519531 59.679688 227.519531 59.683594 227.519531 C 59.679688 227.519531 59.675781 227.519531 59.671875 227.523438 M 59.691406 227.519531 C 59.699219 227.519531 59.703125 227.519531 59.707031 227.519531 C 59.703125 227.519531 59.699219 227.519531 59.691406 227.519531 M 59.71875 227.519531 C 59.722656 227.519531 59.722656 227.519531 59.726562 227.519531 C 59.722656 227.519531 59.722656 227.519531 59.71875 227.519531 M 59.738281 227.519531 C 59.742188 227.519531 59.746094 227.519531 59.75 227.519531 C 59.746094 227.519531 59.742188 227.519531 59.738281 227.519531 M 59.761719 227.519531 C 59.765625 227.519531 59.769531 227.519531 59.773438 227.519531 C 59.769531 227.519531 59.765625 227.519531 59.761719 227.519531 M 59.78125 227.519531 C 59.789062 227.515625 59.792969 227.515625 59.796875 227.515625 C 59.792969 227.515625 59.789062 227.515625 59.78125 227.519531 M 59.808594 227.515625 C 59.8125 227.515625 59.816406 227.515625 59.816406 227.515625 C 59.816406 227.515625 59.8125 227.515625 59.808594 227.515625 M 59.828125 227.515625 C 59.832031 227.515625 59.835938 227.515625 59.839844 227.515625 C 59.835938 227.515625 59.832031 227.515625 59.828125 227.515625 M 59.855469 227.515625 C 59.859375 227.515625 59.859375 227.515625 59.863281 227.515625 C 59.859375 227.515625 59.855469 227.515625 59.855469 227.515625 M 59.875 227.515625 C 59.878906 227.515625 59.882812 227.515625 59.886719 227.511719 C 59.882812 227.511719 59.878906 227.515625 59.875 227.515625 M 59.898438 227.511719 C 59.902344 227.511719 59.90625 227.511719 59.90625 227.511719 C 59.90625 227.511719 59.902344 227.511719 59.898438 227.511719 M 59.921875 227.511719 C 59.921875 227.511719 59.925781 227.511719 59.929688 227.511719 C 59.925781 227.511719 59.921875 227.511719 59.921875 227.511719 M 59.945312 227.511719 C 59.949219 227.511719 59.949219 227.511719 59.953125 227.511719 C 59.949219 227.511719 59.945312 227.511719 59.945312 227.511719 M 59.964844 227.511719 C 59.96875 227.507812 59.96875 227.507812 59.972656 227.507812 C 59.96875 227.507812 59.96875 227.507812 59.964844 227.511719 M 59.992188 227.507812 C 59.992188 227.507812 59.996094 227.507812 59.996094 227.507812 C 59.996094 227.507812 59.992188 227.507812 59.992188 227.507812 M 60.011719 227.507812 C 60.015625 227.507812 60.015625 227.507812 60.015625 227.507812 C 60.015625 227.507812 60.015625 227.507812 60.011719 227.507812 M 60.035156 227.507812 C 60.039062 227.507812 60.039062 227.507812 60.042969 227.507812 C 60.039062 227.507812 60.039062 227.507812 60.035156 227.507812 M 60.058594 227.503906 C 60.058594 227.503906 60.0625 227.503906 60.0625 227.503906 C 60.0625 227.503906 60.058594 227.503906 60.058594 227.503906 M 60.082031 227.503906 C 60.082031 227.503906 60.085938 227.503906 60.085938 227.503906 C 60.085938 227.503906 60.082031 227.503906 60.082031 227.503906 M 60.101562 227.503906 C 60.105469 227.503906 60.105469 227.503906 60.105469 227.503906 C 60.105469 227.503906 60.105469 227.503906 60.101562 227.503906 M 60.125 227.5 C 60.128906 227.5 60.128906 227.5 60.132812 227.5 C 60.128906 227.5 60.128906 227.5 60.125 227.5 M 60.148438 227.5 C 60.148438 227.5 60.152344 227.5 60.152344 227.5 C 60.152344 227.5 60.148438 227.5 60.148438 227.5 M 60.171875 227.5 C 60.171875 227.5 60.175781 227.5 60.175781 227.5 C 60.175781 227.5 60.171875 227.5 60.171875 227.5 M 60.195312 227.496094 L 60.195312 227.496094 M 60.21875 227.496094 L 60.21875 227.496094 M 60.261719 227.492188 C 60.261719 227.492188 60.265625 227.492188 60.265625 227.492188 C 60.261719 227.492188 60.261719 227.492188 60.261719 227.492188 M 60.308594 227.492188 L 60.308594 227.492188 " fill-opacity="1" fill-rule="nonzero"/><path fill="#537de6" d="M 59.0625 227.53125 C 59.070312 227.53125 59.078125 227.53125 59.085938 227.53125 C 59.085938 227.53125 59.085938 227.53125 59.082031 227.53125 C 59.078125 227.53125 59.070312 227.53125 59.0625 227.53125 M 59.0625 227.53125 C 59.054688 227.53125 59.050781 227.53125 59.042969 227.53125 C 59.042969 227.53125 59.042969 227.53125 59.039062 227.53125 C 59.046875 227.53125 59.054688 227.53125 59.0625 227.53125 M 59.089844 227.53125 C 59.097656 227.53125 59.105469 227.53125 59.113281 227.53125 C 59.109375 227.53125 59.109375 227.53125 59.109375 227.53125 C 59.109375 227.53125 59.109375 227.53125 59.105469 227.53125 C 59.101562 227.53125 59.097656 227.53125 59.089844 227.53125 M 59.03125 227.53125 C 59.027344 227.53125 59.019531 227.53125 59.015625 227.53125 C 59.019531 227.53125 59.027344 227.53125 59.03125 227.53125 M 59.113281 227.53125 C 59.121094 227.53125 59.128906 227.53125 59.136719 227.53125 C 59.136719 227.53125 59.136719 227.53125 59.132812 227.53125 C 59.132812 227.53125 59.132812 227.53125 59.128906 227.53125 C 59.125 227.53125 59.121094 227.53125 59.113281 227.53125 M 59.007812 227.53125 C 59.003906 227.53125 59 227.53125 58.996094 227.53125 C 58.996094 227.53125 58.996094 227.53125 58.992188 227.53125 C 58.992188 227.53125 58.992188 227.53125 58.988281 227.53125 C 58.996094 227.53125 59.003906 227.53125 59.007812 227.53125 M 59.136719 227.53125 C 63.324219 227.515625 67.179688 226.109375 70.300781 223.769531 C 67.292969 221.976562 63.839844 220.859375 60.144531 220.675781 L 60.144531 218.964844 C 65.066406 218.871094 69.707031 218.128906 73.832031 216.878906 C 74.402344 217.183594 75.015625 217.417969 75.65625 217.566406 C 75.925781 217.0625 76.175781 216.546875 76.398438 216.015625 C 76.398438 216.015625 76.398438 216.015625 76.402344 216.015625 C 73.6875 222.421875 67.558594 227.015625 60.308594 227.492188 C 60.292969 227.492188 60.277344 227.492188 60.265625 227.492188 C 60.265625 227.492188 60.261719 227.492188 60.261719 227.492188 C 60.25 227.496094 60.234375 227.496094 60.21875 227.496094 C 60.210938 227.496094 60.203125 227.496094 60.195312 227.496094 C 60.1875 227.5 60.183594 227.5 60.175781 227.5 C 60.175781 227.5 60.171875 227.5 60.171875 227.5 C 60.164062 227.5 60.160156 227.5 60.152344 227.5 C 60.152344 227.5 60.148438 227.5 60.148438 227.5 C 60.144531 227.5 60.136719 227.5 60.132812 227.5 C 60.128906 227.5 60.128906 227.5 60.125 227.5 C 60.121094 227.5 60.113281 227.503906 60.105469 227.503906 C 60.105469 227.503906 60.105469 227.503906 60.101562 227.503906 C 60.097656 227.503906 60.09375 227.503906 60.085938 227.503906 C 60.085938 227.503906 60.082031 227.503906 60.082031 227.503906 C 60.074219 227.503906 60.066406 227.503906 60.0625 227.503906 C 60.0625 227.503906 60.058594 227.503906 60.058594 227.503906 C 60.050781 227.503906 60.046875 227.503906 60.042969 227.507812 C 60.039062 227.507812 60.039062 227.507812 60.035156 227.507812 C 60.03125 227.507812 60.023438 227.507812 60.015625 227.507812 C 60.015625 227.507812 60.015625 227.507812 60.011719 227.507812 C 60.007812 227.507812 60.003906 227.507812 59.996094 227.507812 C 59.996094 227.507812 59.992188 227.507812 59.992188 227.507812 C 59.984375 227.507812 59.976562 227.507812 59.972656 227.507812 C 59.96875 227.507812 59.96875 227.507812 59.964844 227.511719 C 59.960938 227.511719 59.957031 227.511719 59.953125 227.511719 C 59.949219 227.511719 59.949219 227.511719 59.945312 227.511719 C 59.9375 227.511719 59.933594 227.511719 59.929688 227.511719 C 59.925781 227.511719 59.921875 227.511719 59.921875 227.511719 C 59.917969 227.511719 59.910156 227.511719 59.90625 227.511719 C 59.90625 227.511719 59.902344 227.511719 59.898438 227.511719 C 59.894531 227.511719 59.890625 227.511719 59.886719 227.511719 C 59.882812 227.515625 59.878906 227.515625 59.875 227.515625 C 59.871094 227.515625 59.867188 227.515625 59.863281 227.515625 C 59.859375 227.515625 59.859375 227.515625 59.855469 227.515625 C 59.851562 227.515625 59.84375 227.515625 59.839844 227.515625 C 59.835938 227.515625 59.832031 227.515625 59.828125 227.515625 C 59.824219 227.515625 59.820312 227.515625 59.816406 227.515625 C 59.816406 227.515625 59.8125 227.515625 59.808594 227.515625 C 59.804688 227.515625 59.800781 227.515625 59.796875 227.515625 C 59.792969 227.515625 59.789062 227.515625 59.78125 227.519531 C 59.78125 227.519531 59.777344 227.519531 59.773438 227.519531 C 59.769531 227.519531 59.765625 227.519531 59.761719 227.519531 C 59.757812 227.519531 59.753906 227.519531 59.75 227.519531 C 59.746094 227.519531 59.742188 227.519531 59.738281 227.519531 C 59.734375 227.519531 59.730469 227.519531 59.726562 227.519531 C 59.722656 227.519531 59.722656 227.519531 59.71875 227.519531 C 59.714844 227.519531 59.710938 227.519531 59.707031 227.519531 C 59.703125 227.519531 59.699219 227.519531 59.691406 227.519531 C 59.6875 227.519531 59.6875 227.519531 59.683594 227.519531 C 59.679688 227.519531 59.675781 227.519531 59.671875 227.523438 C 59.667969 227.523438 59.664062 227.523438 59.660156 227.523438 C 59.65625 227.523438 59.652344 227.523438 59.648438 227.523438 C 59.644531 227.523438 59.640625 227.523438 59.636719 227.523438 C 59.632812 227.523438 59.628906 227.523438 59.628906 227.523438 C 59.625 227.523438 59.621094 227.523438 59.617188 227.523438 C 59.613281 227.523438 59.605469 227.523438 59.601562 227.523438 C 59.597656 227.523438 59.59375 227.523438 59.589844 227.523438 C 59.589844 227.523438 59.585938 227.523438 59.582031 227.523438 C 59.578125 227.523438 59.574219 227.523438 59.570312 227.523438 C 59.566406 227.523438 59.5625 227.523438 59.558594 227.523438 C 59.554688 227.523438 59.550781 227.523438 59.546875 227.523438 C 59.542969 227.523438 59.539062 227.523438 59.535156 227.523438 C 59.53125 227.527344 59.527344 227.527344 59.523438 227.527344 C 59.519531 227.527344 59.515625 227.527344 59.511719 227.527344 C 59.507812 227.527344 59.503906 227.527344 59.5 227.527344 C 59.496094 227.527344 59.496094 227.527344 59.492188 227.527344 C 59.488281 227.527344 59.484375 227.527344 59.480469 227.527344 C 59.472656 227.527344 59.472656 227.527344 59.464844 227.527344 C 59.460938 227.527344 59.457031 227.527344 59.457031 227.527344 C 59.453125 227.527344 59.449219 227.527344 59.445312 227.527344 C 59.441406 227.527344 59.4375 227.527344 59.433594 227.527344 C 59.429688 227.527344 59.425781 227.527344 59.421875 227.527344 C 59.417969 227.527344 59.414062 227.527344 59.410156 227.527344 C 59.40625 227.527344 59.402344 227.527344 59.402344 227.527344 C 59.398438 227.527344 59.394531 227.527344 59.390625 227.527344 C 59.382812 227.527344 59.378906 227.527344 59.375 227.527344 C 59.371094 227.527344 59.367188 227.527344 59.363281 227.527344 C 59.363281 227.527344 59.359375 227.527344 59.355469 227.527344 C 59.351562 227.527344 59.347656 227.527344 59.34375 227.527344 C 59.339844 227.527344 59.335938 227.527344 59.332031 227.527344 C 59.328125 227.53125 59.324219 227.53125 59.316406 227.53125 C 59.316406 227.53125 59.3125 227.53125 59.308594 227.53125 C 59.304688 227.53125 59.300781 227.53125 59.296875 227.53125 C 59.292969 227.53125 59.289062 227.53125 59.285156 227.53125 C 59.28125 227.53125 59.277344 227.53125 59.273438 227.53125 C 59.269531 227.53125 59.265625 227.53125 59.265625 227.53125 C 59.261719 227.53125 59.253906 227.53125 59.25 227.53125 C 59.246094 227.53125 59.242188 227.53125 59.242188 227.53125 C 59.238281 227.53125 59.230469 227.53125 59.226562 227.53125 C 59.222656 227.53125 59.222656 227.53125 59.21875 227.53125 C 59.214844 227.53125 59.207031 227.53125 59.203125 227.53125 C 59.199219 227.53125 59.199219 227.53125 59.195312 227.53125 C 59.191406 227.53125 59.1875 227.53125 59.179688 227.53125 C 59.179688 227.53125 59.175781 227.53125 59.175781 227.53125 C 59.167969 227.53125 59.164062 227.53125 59.15625 227.53125 C 59.15625 227.53125 59.152344 227.53125 59.152344 227.53125 C 59.148438 227.53125 59.140625 227.53125 59.136719 227.53125 M 58.988281 227.53125 C 58.980469 227.53125 58.972656 227.53125 58.964844 227.53125 C 58.972656 227.53125 58.980469 227.53125 58.988281 227.53125 M 58.964844 227.53125 C 58.960938 227.53125 58.953125 227.53125 58.949219 227.53125 C 58.933594 227.53125 58.917969 227.53125 58.90625 227.53125 C 58.902344 227.53125 58.902344 227.53125 58.902344 227.53125 C 58.886719 227.53125 58.875 227.53125 58.859375 227.53125 C 51.765625 227.453125 45.613281 223.441406 42.46875 217.566406 C 43.109375 217.417969 43.71875 217.183594 44.285156 216.878906 C 48.386719 218.117188 53 218.859375 57.894531 218.964844 L 57.894531 220.679688 C 54.230469 220.875 50.808594 221.988281 47.828125 223.769531 C 50.941406 226.101562 54.785156 227.507812 58.964844 227.53125 " fill-opacity="1" fill-rule="nonzero"/><path fill="#373a98" d="M 57.894531 220.679688 L 57.894531 218.964844 C 58.28125 218.972656 58.671875 218.976562 59.0625 218.976562 C 59.425781 218.976562 59.785156 218.972656 60.144531 218.964844 L 60.144531 220.675781 C 59.785156 220.65625 59.425781 220.648438 59.0625 220.648438 C 58.671875 220.648438 58.28125 220.660156 57.894531 220.679688 " fill-opacity="1" fill-rule="nonzero"/><path fill="#373a98" d="M 75.65625 217.566406 C 75.015625 217.417969 74.402344 217.183594 73.832031 216.878906 C 74.710938 216.613281 75.570312 216.324219 76.398438 216.015625 C 76.175781 216.546875 75.925781 217.0625 75.65625 217.566406 " fill-opacity="1" fill-rule="nonzero"/><path fill="#373a98" d="M 42.46875 217.566406 C 42.199219 217.0625 41.949219 216.542969 41.726562 216.015625 C 42.554688 216.324219 43.410156 216.613281 44.285156 216.878906 C 43.71875 217.183594 43.109375 217.417969 42.46875 217.566406 " fill-opacity="1" fill-rule="nonzero"/><path fill="#373a98" d="M 59.0625 227.53125 C 59.054688 227.53125 59.046875 227.53125 59.039062 227.53125 C 59.039062 227.53125 59.035156 227.53125 59.03125 227.53125 C 59.027344 227.53125 59.019531 227.53125 59.015625 227.53125 C 59.011719 227.53125 59.011719 227.53125 59.007812 227.53125 C 59.003906 227.53125 58.996094 227.53125 58.988281 227.53125 C 58.980469 227.53125 58.972656 227.53125 58.964844 227.53125 C 54.785156 227.507812 50.941406 226.101562 47.828125 223.769531 C 50.808594 221.988281 54.230469 220.875 57.894531 220.679688 C 58.28125 220.660156 58.671875 220.648438 59.0625 220.648438 C 59.425781 220.648438 59.785156 220.65625 60.144531 220.675781 C 63.839844 220.859375 67.292969 221.976562 70.300781 223.769531 C 67.179688 226.109375 63.324219 227.515625 59.136719 227.53125 C 59.128906 227.53125 59.121094 227.53125 59.113281 227.53125 C 59.105469 227.53125 59.097656 227.53125 59.089844 227.53125 C 59.089844 227.53125 59.089844 227.53125 59.085938 227.53125 C 59.078125 227.53125 59.070312 227.53125 59.0625 227.53125 " fill-opacity="1" fill-rule="nonzero"/><path fill="#474ca8" d="M 59.0625 174.1875 C 61.5 174.1875 63.824219 173.707031 65.964844 172.859375 C 63.824219 170.242188 61.5 168.605469 59.0625 168.605469 C 56.625 168.605469 54.300781 170.242188 52.164062 172.859375 C 54.300781 173.707031 56.625 174.1875 59.0625 174.1875 " fill-opacity="1" fill-rule="nonzero"/><path fill="#80c6ff" d="M 59.0625 179.253906 C 56.371094 179.253906 53.757812 179.042969 51.238281 178.667969 C 50.707031 178.585938 50.417969 177.976562 50.695312 177.515625 C 51.238281 176.613281 51.796875 175.769531 52.371094 175.007812 C 52.515625 174.820312 52.734375 174.71875 52.964844 174.71875 C 53.03125 174.71875 53.101562 174.726562 53.171875 174.746094 C 55.050781 175.25 57.023438 175.527344 59.0625 175.527344 C 61.101562 175.527344 63.074219 175.25 64.953125 174.746094 C 65.023438 174.726562 65.09375 174.71875 65.164062 174.71875 C 65.394531 174.71875 65.613281 174.820312 65.753906 175.007812 C 66.332031 175.769531 66.886719 176.613281 67.429688 177.515625 C 67.707031 177.976562 67.421875 178.585938 66.886719 178.667969 C 64.371094 179.042969 61.757812 179.253906 59.0625 179.253906 " fill-opacity="1" fill-rule="nonzero"/><path fill="#6ca4ff" d="M 40.230469 153.335938 C 40.230469 142.890625 48.664062 134.425781 59.0625 134.425781 C 69.464844 134.425781 77.894531 142.890625 77.894531 153.335938 C 77.894531 163.777344 69.464844 172.242188 59.0625 172.242188 C 48.664062 172.242188 40.230469 163.777344 40.230469 153.335938 " fill-opacity="1" fill-rule="nonzero"/><path fill="#c5c3e6" d="M 42.542969 162.421875 C 42.527344 162.394531 42.511719 162.367188 42.496094 162.335938 C 42.511719 162.367188 42.527344 162.394531 42.542969 162.421875 M 42.496094 162.335938 C 42.148438 161.691406 41.839844 161.027344 41.566406 160.34375 C 41.839844 161.027344 42.148438 161.691406 42.496094 162.335938 " fill-opacity="1" fill-rule="nonzero"/><path fill="#537de6" d="M 59.0625 172.242188 C 51.941406 172.242188 45.746094 168.277344 42.542969 162.421875 C 42.527344 162.394531 42.511719 162.367188 42.496094 162.335938 C 42.148438 161.691406 41.839844 161.027344 41.566406 160.34375 C 41.609375 160.34375 41.652344 160.34375 41.691406 160.34375 C 41.804688 159.792969 41.90625 159.238281 41.992188 158.6875 C 41.996094 158.675781 41.996094 158.667969 41.996094 158.660156 C 42.066406 158.207031 42.128906 157.757812 42.179688 157.304688 C 45.253906 163.550781 51.65625 167.847656 59.0625 167.847656 C 66.375 167.847656 72.710938 163.660156 75.824219 157.542969 C 75.941406 158.480469 76.09375 159.414062 76.285156 160.34375 C 76.375 160.34375 76.46875 160.34375 76.558594 160.34375 C 73.785156 167.316406 66.996094 172.242188 59.0625 172.242188 " fill-opacity="1" fill-rule="nonzero"/><path fill="#474ca8" d="M 51.953125 187.617188 C 51.953125 183.675781 55.136719 180.480469 59.0625 180.480469 C 62.988281 180.480469 66.171875 183.675781 66.171875 187.617188 C 66.171875 191.558594 62.988281 194.757812 59.0625 194.757812 C 55.136719 194.757812 51.953125 191.558594 51.953125 187.617188 " fill-opacity="1" fill-rule="nonzero"/><path fill="#42f9ff" d="M 53.128906 187.617188 C 53.128906 184.328125 55.785156 181.660156 59.0625 181.660156 C 62.339844 181.660156 65 184.328125 65 187.617188 C 65 190.910156 62.339844 193.578125 59.0625 193.578125 C 55.785156 193.578125 53.128906 190.910156 53.128906 187.617188 " fill-opacity="1" fill-rule="nonzero"/><path fill="#474ca8" d="M 45.503906 153.335938 C 45.503906 145.816406 51.574219 139.722656 59.0625 139.722656 C 66.550781 139.722656 72.621094 145.816406 72.621094 153.335938 C 72.621094 160.855469 66.550781 166.949219 59.0625 166.949219 C 51.574219 166.949219 45.503906 160.855469 45.503906 153.335938 " fill-opacity="1" fill-rule="nonzero"/><path fill="#42f9ff" d="M 70.464844 152.105469 C 67.378906 150.601562 64.710938 150.773438 61.765625 152.105469 C 62.9375 147.777344 69.136719 147.644531 70.464844 152.105469 " fill-opacity="1" fill-rule="nonzero"/><path fill="#42f9ff" d="M 57.628906 158.53125 C 61.027344 158.996094 63.511719 158.003906 65.894531 155.816406 C 66.121094 160.296875 60.273438 162.359375 57.628906 158.53125 " fill-opacity="1" fill-rule="nonzero"/><path fill="#42f9ff" d="M 56.765625 152.105469 C 53.679688 150.601562 51.011719 150.773438 48.066406 152.105469 C 49.238281 147.777344 55.4375 147.644531 56.765625 152.105469 " fill-opacity="1" fill-rule="nonzero"/><path fill="#636cdf" d="M 76.433594 176.121094 C 76.347656 176.121094 76.253906 176.105469 76.164062 176.070312 C 74.378906 175.386719 72.34375 174.996094 70.183594 174.996094 C 69.910156 174.996094 69.644531 175.011719 69.378906 175.027344 C 69.371094 175.027344 69.359375 175.027344 69.347656 175.027344 C 69.183594 175.027344 69.027344 174.941406 68.941406 174.796875 L 67.789062 172.851562 C 67.625 172.574219 67.777344 172.214844 68.089844 172.140625 C 68.761719 171.980469 69.460938 171.894531 70.183594 171.894531 C 72.867188 171.894531 75.277344 173.042969 76.964844 174.875 C 77.425781 175.371094 77.023438 176.121094 76.433594 176.121094 " fill-opacity="1" fill-rule="nonzero"/><path fill="#636cdf" d="M 42.0625 176.121094 C 41.472656 176.121094 41.070312 175.371094 41.53125 174.875 C 43.21875 173.042969 45.628906 171.894531 48.3125 171.894531 C 49.035156 171.894531 49.734375 171.980469 50.40625 172.140625 C 50.71875 172.214844 50.871094 172.574219 50.707031 172.851562 L 49.554688 174.796875 C 49.46875 174.941406 49.3125 175.027344 49.144531 175.027344 C 49.136719 175.027344 49.125 175.027344 49.117188 175.027344 C 48.851562 175.011719 48.585938 174.996094 48.3125 174.996094 C 46.152344 174.996094 44.117188 175.386719 42.332031 176.070312 C 42.238281 176.105469 42.148438 176.121094 42.0625 176.121094 " fill-opacity="1" fill-rule="nonzero"/><path fill="#80c6ff" d="M 48.527344 140.589844 C 48.03125 140.589844 47.699219 139.914062 48.164062 139.546875 C 51.15625 137.160156 54.941406 135.730469 59.0625 135.730469 C 63.183594 135.730469 66.96875 137.160156 69.964844 139.546875 C 70.425781 139.914062 70.097656 140.589844 69.597656 140.589844 C 69.515625 140.589844 69.433594 140.570312 69.34375 140.53125 C 66.296875 139.136719 62.792969 138.339844 59.0625 138.339844 C 55.332031 138.339844 51.832031 139.136719 48.78125 140.53125 C 48.695312 140.570312 48.609375 140.589844 48.527344 140.589844 " fill-opacity="1" fill-rule="nonzero"/><path fill="#373a98" d="M 59.0625 166.117188 C 55.308594 166.117188 51.921875 164.578125 49.46875 162.101562 C 49.214844 161.84375 49.429688 161.445312 49.746094 161.445312 C 49.792969 161.445312 49.847656 161.453125 49.898438 161.476562 C 52.605469 162.601562 55.726562 163.25 59.0625 163.25 C 62.398438 163.25 65.523438 162.601562 68.226562 161.476562 C 68.28125 161.453125 68.332031 161.445312 68.382812 161.445312 C 68.695312 161.445312 68.914062 161.84375 68.65625 162.101562 C 66.203125 164.578125 62.816406 166.117188 59.0625 166.117188 " fill-opacity="1" fill-rule="nonzero"/><path fill="#636cdf" d="M 67.144531 146.484375 C 67.035156 146.484375 66.917969 146.460938 66.800781 146.414062 C 64.515625 145.515625 61.914062 145.007812 59.148438 145.007812 C 56.382812 145.007812 53.78125 145.515625 51.496094 146.414062 C 51.378906 146.460938 51.261719 146.484375 51.152344 146.484375 C 50.394531 146.484375 49.886719 145.488281 50.480469 144.832031 C 52.640625 142.433594 55.722656 140.929688 59.148438 140.929688 C 62.574219 140.929688 65.65625 142.433594 67.816406 144.832031 C 68.410156 145.488281 67.902344 146.484375 67.144531 146.484375 " fill-opacity="1" fill-rule="nonzero"/><path fill="#474ca8" d="M 76.695312 160.34375 C 76.558594 160.34375 76.421875 160.34375 76.285156 160.34375 C 75.332031 155.71875 75.332031 150.949219 76.285156 146.328125 C 76.421875 146.328125 76.558594 146.328125 76.695312 146.328125 C 80.402344 146.320312 83.585938 149.464844 83.675781 153.335938 C 83.585938 157.207031 80.402344 160.351562 76.695312 160.34375 " fill-opacity="1" fill-rule="nonzero"/><path fill="#636cdf" d="M 81.710938 152 C 81.632812 152 81.554688 151.984375 81.472656 151.953125 C 80.292969 151.480469 78.949219 151.085938 77.488281 150.796875 C 77.210938 150.742188 77.019531 150.515625 77.039062 150.25 C 77.097656 149.4375 77.183594 148.625 77.292969 147.816406 C 77.335938 147.503906 77.636719 147.246094 77.9375 147.246094 C 77.984375 147.246094 78.035156 147.253906 78.082031 147.269531 C 79.980469 147.851562 81.546875 149.339844 82.292969 151.238281 C 82.445312 151.621094 82.109375 152 81.710938 152 " fill-opacity="1" fill-rule="nonzero"/><path fill="#c5c3e6" d="M 77.023438 160.335938 C 77.765625 160.300781 78.480469 160.140625 79.152344 159.871094 C 78.488281 160.140625 77.777344 160.300781 77.023438 160.335938 " fill-opacity="1" fill-rule="nonzero"/><path fill="#537de6" d="M 75.6875 156.207031 C 75.6875 156.203125 75.6875 156.203125 75.6875 156.203125 C 75.6875 156.203125 75.6875 156.203125 75.6875 156.207031 M 75.6875 156.183594 L 75.6875 156.183594 M 75.683594 156.125 C 75.683594 156.121094 75.683594 156.121094 75.683594 156.121094 C 75.683594 156.121094 75.683594 156.121094 75.683594 156.125 M 75.679688 156.101562 C 75.679688 156.101562 75.679688 156.097656 75.679688 156.097656 C 75.679688 156.097656 75.679688 156.101562 75.679688 156.101562 M 75.675781 156.042969 C 75.675781 156.039062 75.675781 156.039062 75.675781 156.039062 C 75.675781 156.039062 75.675781 156.039062 75.675781 156.042969 M 75.671875 156.019531 C 75.671875 156.019531 75.671875 156.015625 75.671875 156.015625 C 75.671875 156.015625 75.671875 156.019531 75.671875 156.019531 M 75.671875 155.996094 L 75.671875 155.996094 M 75.667969 155.960938 C 75.667969 155.960938 75.667969 155.957031 75.667969 155.953125 C 75.667969 155.957031 75.667969 155.960938 75.667969 155.960938 M 75.667969 155.9375 C 75.667969 155.9375 75.667969 155.933594 75.667969 155.929688 C 75.667969 155.933594 75.667969 155.9375 75.667969 155.9375 M 75.664062 155.914062 C 75.664062 155.914062 75.664062 155.914062 75.664062 155.910156 C 75.664062 155.910156 75.664062 155.914062 75.664062 155.914062 M 75.664062 155.878906 C 75.664062 155.875 75.664062 155.875 75.664062 155.871094 C 75.664062 155.875 75.664062 155.878906 75.664062 155.878906 M 75.660156 155.855469 C 75.660156 155.855469 75.660156 155.851562 75.660156 155.847656 C 75.660156 155.851562 75.660156 155.855469 75.660156 155.855469 M 75.660156 155.832031 C 75.660156 155.832031 75.660156 155.828125 75.660156 155.824219 C 75.660156 155.828125 75.660156 155.832031 75.660156 155.832031 M 75.65625 155.796875 C 75.65625 155.792969 75.65625 155.792969 75.65625 155.789062 C 75.65625 155.792969 75.65625 155.792969 75.65625 155.796875 M 75.65625 155.773438 C 75.65625 155.769531 75.65625 155.769531 75.65625 155.765625 C 75.65625 155.769531 75.65625 155.769531 75.65625 155.773438 M 75.652344 155.75 C 75.652344 155.746094 75.652344 155.746094 75.652344 155.742188 C 75.652344 155.746094 75.652344 155.746094 75.652344 155.75 M 75.652344 155.714844 C 75.652344 155.710938 75.652344 155.707031 75.652344 155.707031 C 75.652344 155.710938 75.652344 155.710938 75.652344 155.714844 M 75.648438 155.691406 C 75.648438 155.6875 75.648438 155.683594 75.648438 155.683594 C 75.648438 155.683594 75.648438 155.6875 75.648438 155.691406 M 75.648438 155.667969 C 75.648438 155.664062 75.648438 155.660156 75.648438 155.65625 C 75.648438 155.660156 75.648438 155.664062 75.648438 155.667969 M 75.644531 155.636719 C 75.644531 155.632812 75.644531 155.628906 75.644531 155.621094 C 75.644531 155.625 75.644531 155.632812 75.644531 155.636719 M 75.644531 155.609375 C 75.644531 155.605469 75.644531 155.601562 75.644531 155.597656 C 75.644531 155.601562 75.644531 155.605469 75.644531 155.609375 M 75.644531 155.585938 C 75.640625 155.582031 75.640625 155.578125 75.640625 155.570312 C 75.640625 155.578125 75.640625 155.582031 75.644531 155.585938 M 75.640625 155.554688 C 75.640625 155.550781 75.640625 155.546875 75.640625 155.539062 C 75.640625 155.546875 75.640625 155.550781 75.640625 155.554688 M 75.640625 155.527344 C 75.640625 155.523438 75.640625 155.519531 75.636719 155.515625 C 75.640625 155.519531 75.640625 155.523438 75.640625 155.527344 M 75.636719 155.503906 C 75.636719 155.5 75.636719 155.492188 75.636719 155.488281 C 75.636719 155.492188 75.636719 155.5 75.636719 155.503906 M 75.636719 155.476562 C 75.636719 155.46875 75.636719 155.464844 75.636719 155.457031 C 75.636719 155.464844 75.636719 155.472656 75.636719 155.476562 M 75.632812 155.445312 C 75.632812 155.441406 75.632812 155.4375 75.632812 155.429688 C 75.632812 155.4375 75.632812 155.441406 75.632812 155.445312 M 75.632812 155.421875 C 75.632812 155.414062 75.632812 155.410156 75.632812 155.402344 C 75.632812 155.410156 75.632812 155.414062 75.632812 155.421875 M 75.632812 155.398438 C 75.628906 155.390625 75.628906 155.382812 75.628906 155.375 C 75.628906 155.382812 75.628906 155.390625 75.632812 155.398438 M 75.628906 155.363281 C 75.628906 155.359375 75.628906 155.355469 75.628906 155.347656 C 75.628906 155.355469 75.628906 155.359375 75.628906 155.363281 M 75.628906 155.339844 C 75.628906 155.332031 75.628906 155.324219 75.625 155.320312 C 75.628906 155.324219 75.628906 155.332031 75.628906 155.339844 M 75.625 155.316406 C 75.625 155.308594 75.625 155.296875 75.625 155.289062 C 75.625 155.296875 75.625 155.308594 75.625 155.316406 M 75.625 155.285156 C 75.625 155.277344 75.625 155.269531 75.625 155.265625 C 75.625 155.269531 75.625 155.277344 75.625 155.285156 M 75.625 155.257812 C 75.621094 155.25 75.621094 155.242188 75.621094 155.234375 C 75.621094 155.242188 75.621094 155.25 75.625 155.257812 M 75.621094 155.234375 C 75.621094 155.222656 75.621094 155.214844 75.621094 155.207031 C 75.621094 155.214844 75.621094 155.222656 75.621094 155.234375 M 75.621094 155.203125 C 75.621094 155.195312 75.621094 155.1875 75.617188 155.183594 C 75.621094 155.1875 75.621094 155.195312 75.621094 155.203125 M 75.617188 155.175781 C 75.617188 155.167969 75.617188 155.160156 75.617188 155.152344 C 75.617188 155.160156 75.617188 155.167969 75.617188 155.175781 M 75.617188 155.152344 C 75.617188 155.140625 75.617188 155.132812 75.617188 155.125 C 75.617188 155.132812 75.617188 155.140625 75.617188 155.152344 M 75.617188 155.121094 C 75.617188 155.113281 75.613281 155.105469 75.613281 155.097656 C 75.613281 155.105469 75.617188 155.113281 75.617188 155.121094 M 75.613281 155.09375 C 75.613281 155.085938 75.613281 155.078125 75.613281 155.070312 C 75.613281 155.078125 75.613281 155.085938 75.613281 155.09375 M 75.613281 155.066406 C 75.613281 155.058594 75.613281 155.050781 75.613281 155.039062 C 75.613281 155.050781 75.613281 155.058594 75.613281 155.066406 M 75.613281 155.039062 C 75.613281 155.03125 75.609375 155.023438 75.609375 155.015625 C 75.609375 155.023438 75.613281 155.03125 75.613281 155.039062 M 75.609375 155.011719 C 75.609375 154.984375 75.609375 154.960938 75.605469 154.933594 C 75.609375 154.957031 75.609375 154.984375 75.609375 155.011719 M 75.605469 154.929688 C 75.605469 154.921875 75.605469 154.910156 75.605469 154.902344 C 75.605469 154.914062 75.605469 154.921875 75.605469 154.929688 M 75.605469 154.902344 C 75.605469 154.886719 75.605469 154.867188 75.601562 154.851562 C 75.605469 154.867188 75.605469 154.886719 75.605469 154.902344 M 75.601562 154.847656 C 75.601562 154.820312 75.601562 154.792969 75.597656 154.765625 C 75.601562 154.792969 75.601562 154.820312 75.601562 154.847656 M 75.597656 154.765625 C 75.503906 152.417969 75.644531 150.0625 76.023438 147.738281 C 75.644531 150.0625 75.503906 152.417969 75.597656 154.765625 " fill-opacity="1" fill-rule="nonzero"/><path fill="#373a98" d="M 76.703125 160.34375 C 76.699219 160.34375 76.699219 160.34375 76.695312 160.34375 C 76.648438 160.34375 76.605469 160.34375 76.558594 160.34375 C 76.46875 160.34375 76.375 160.34375 76.285156 160.34375 C 76.171875 159.792969 76.070312 159.238281 75.984375 158.6875 C 75.964844 158.566406 75.949219 158.449219 75.929688 158.332031 C 75.828125 157.625 75.746094 156.914062 75.6875 156.207031 C 75.6875 156.203125 75.6875 156.203125 75.6875 156.203125 C 75.6875 156.199219 75.6875 156.191406 75.6875 156.183594 C 75.683594 156.164062 75.683594 156.144531 75.683594 156.125 C 75.683594 156.121094 75.683594 156.121094 75.683594 156.121094 C 75.679688 156.113281 75.679688 156.109375 75.679688 156.101562 C 75.679688 156.101562 75.679688 156.097656 75.679688 156.097656 C 75.679688 156.078125 75.675781 156.058594 75.675781 156.042969 C 75.675781 156.039062 75.675781 156.039062 75.675781 156.039062 C 75.675781 156.03125 75.675781 156.027344 75.671875 156.019531 C 75.671875 156.019531 75.671875 156.015625 75.671875 156.015625 C 75.671875 156.007812 75.671875 156.003906 75.671875 155.996094 C 75.671875 155.984375 75.671875 155.972656 75.667969 155.960938 C 75.667969 155.960938 75.667969 155.957031 75.667969 155.953125 C 75.667969 155.949219 75.667969 155.945312 75.667969 155.9375 C 75.667969 155.9375 75.667969 155.933594 75.667969 155.929688 C 75.667969 155.925781 75.667969 155.921875 75.664062 155.914062 C 75.664062 155.914062 75.664062 155.910156 75.664062 155.910156 C 75.664062 155.898438 75.664062 155.890625 75.664062 155.878906 C 75.664062 155.878906 75.664062 155.875 75.664062 155.871094 C 75.664062 155.867188 75.660156 155.859375 75.660156 155.855469 C 75.660156 155.855469 75.660156 155.851562 75.660156 155.847656 C 75.660156 155.84375 75.660156 155.839844 75.660156 155.832031 C 75.660156 155.832031 75.660156 155.828125 75.660156 155.824219 C 75.660156 155.816406 75.65625 155.804688 75.65625 155.796875 C 75.65625 155.792969 75.65625 155.792969 75.65625 155.789062 C 75.65625 155.785156 75.65625 155.777344 75.65625 155.773438 C 75.65625 155.769531 75.65625 155.769531 75.65625 155.765625 C 75.65625 155.761719 75.652344 155.753906 75.652344 155.75 C 75.652344 155.746094 75.652344 155.746094 75.652344 155.742188 C 75.652344 155.730469 75.652344 155.722656 75.652344 155.714844 C 75.652344 155.710938 75.652344 155.710938 75.652344 155.707031 C 75.648438 155.699219 75.648438 155.695312 75.648438 155.691406 C 75.648438 155.6875 75.648438 155.683594 75.648438 155.683594 C 75.648438 155.675781 75.648438 155.671875 75.648438 155.667969 C 75.648438 155.664062 75.648438 155.660156 75.648438 155.65625 C 75.648438 155.648438 75.644531 155.644531 75.644531 155.636719 C 75.644531 155.632812 75.644531 155.625 75.644531 155.621094 C 75.644531 155.617188 75.644531 155.613281 75.644531 155.609375 C 75.644531 155.605469 75.644531 155.601562 75.644531 155.597656 C 75.644531 155.59375 75.644531 155.589844 75.644531 155.585938 C 75.640625 155.582031 75.640625 155.578125 75.640625 155.570312 C 75.640625 155.566406 75.640625 155.5625 75.640625 155.554688 C 75.640625 155.550781 75.640625 155.546875 75.640625 155.539062 C 75.640625 155.535156 75.640625 155.53125 75.640625 155.527344 C 75.640625 155.523438 75.640625 155.519531 75.636719 155.515625 C 75.636719 155.511719 75.636719 155.507812 75.636719 155.503906 C 75.636719 155.5 75.636719 155.492188 75.636719 155.488281 C 75.636719 155.484375 75.636719 155.480469 75.636719 155.476562 C 75.636719 155.472656 75.636719 155.464844 75.636719 155.457031 C 75.632812 155.453125 75.632812 155.449219 75.632812 155.445312 C 75.632812 155.441406 75.632812 155.4375 75.632812 155.429688 C 75.632812 155.429688 75.632812 155.425781 75.632812 155.421875 C 75.632812 155.414062 75.632812 155.410156 75.632812 155.402344 C 75.632812 155.402344 75.632812 155.398438 75.632812 155.398438 C 75.628906 155.390625 75.628906 155.382812 75.628906 155.375 C 75.628906 155.371094 75.628906 155.367188 75.628906 155.363281 C 75.628906 155.359375 75.628906 155.355469 75.628906 155.347656 C 75.628906 155.34375 75.628906 155.34375 75.628906 155.339844 C 75.628906 155.332031 75.628906 155.324219 75.625 155.320312 C 75.625 155.316406 75.625 155.316406 75.625 155.316406 C 75.625 155.308594 75.625 155.296875 75.625 155.289062 C 75.625 155.289062 75.625 155.285156 75.625 155.285156 C 75.625 155.277344 75.625 155.269531 75.625 155.265625 C 75.625 155.261719 75.625 155.261719 75.625 155.257812 C 75.621094 155.25 75.621094 155.242188 75.621094 155.234375 C 75.621094 155.222656 75.621094 155.214844 75.621094 155.207031 C 75.621094 155.207031 75.621094 155.203125 75.621094 155.203125 C 75.621094 155.195312 75.621094 155.1875 75.617188 155.183594 C 75.617188 155.179688 75.617188 155.179688 75.617188 155.175781 C 75.617188 155.167969 75.617188 155.160156 75.617188 155.152344 C 75.617188 155.140625 75.617188 155.132812 75.617188 155.125 C 75.617188 155.125 75.617188 155.121094 75.617188 155.121094 C 75.617188 155.113281 75.613281 155.105469 75.613281 155.097656 C 75.613281 155.097656 75.613281 155.09375 75.613281 155.09375 C 75.613281 155.085938 75.613281 155.078125 75.613281 155.070312 L 75.613281 155.066406 C 75.613281 155.058594 75.613281 155.050781 75.613281 155.039062 C 75.613281 155.03125 75.609375 155.023438 75.609375 155.015625 C 75.609375 155.015625 75.609375 155.011719 75.609375 155.011719 C 75.609375 154.984375 75.609375 154.957031 75.605469 154.933594 C 75.605469 154.929688 75.605469 154.929688 75.605469 154.929688 C 75.605469 154.921875 75.605469 154.914062 75.605469 154.902344 C 75.605469 154.886719 75.605469 154.867188 75.601562 154.851562 C 75.601562 154.847656 75.601562 154.847656 75.601562 154.847656 C 75.601562 154.820312 75.601562 154.792969 75.597656 154.765625 C 75.503906 152.417969 75.644531 150.0625 76.023438 147.738281 C 75.964844 150.769531 76.398438 153.84375 77.109375 156.886719 C 77.273438 157.5625 77.925781 158.035156 78.605469 158.035156 C 78.722656 158.035156 78.84375 158.019531 78.960938 157.988281 C 80.261719 157.65625 82.097656 157.085938 82.914062 156.355469 C 82.074219 157.957031 80.761719 159.226562 79.152344 159.871094 C 78.480469 160.140625 77.765625 160.300781 77.023438 160.335938 C 76.917969 160.339844 76.8125 160.34375 76.703125 160.34375 " fill-opacity="1" fill-rule="nonzero"/><path fill="#474ca8" d="M 41.28125 160.34375 C 41.417969 160.34375 41.554688 160.34375 41.691406 160.34375 C 42.648438 155.71875 42.648438 150.949219 41.691406 146.328125 C 41.554688 146.328125 41.417969 146.328125 41.28125 146.328125 C 37.574219 146.320312 34.390625 149.464844 34.300781 153.335938 C 34.390625 157.207031 37.574219 160.351562 41.28125 160.34375 " fill-opacity="1" fill-rule="nonzero"/><path fill="#636cdf" d="M 36.265625 152 C 35.867188 152 35.535156 151.621094 35.683594 151.238281 C 36.433594 149.339844 37.996094 147.851562 39.894531 147.269531 C 39.941406 147.253906 39.992188 147.246094 40.042969 147.246094 C 40.34375 147.246094 40.644531 147.503906 40.6875 147.816406 C 40.792969 148.625 40.878906 149.4375 40.941406 150.25 C 40.960938 150.515625 40.765625 150.742188 40.488281 150.796875 C 39.027344 151.085938 37.683594 151.480469 36.503906 151.953125 C 36.425781 151.984375 36.34375 152 36.265625 152 " fill-opacity="1" fill-rule="nonzero"/><path fill="#4060cf" d="M 41.691406 160.34375 C 41.652344 160.34375 41.609375 160.34375 41.566406 160.34375 C 41.609375 160.34375 41.652344 160.34375 41.691406 160.34375 C 41.808594 159.785156 41.910156 159.222656 41.996094 158.660156 C 41.996094 158.667969 41.996094 158.675781 41.992188 158.6875 C 41.90625 159.238281 41.804688 159.792969 41.691406 160.34375 " fill-opacity="1" fill-rule="nonzero"/><path fill="#c5c3e6" d="M 40.945312 160.335938 C 40.199219 160.300781 39.488281 160.140625 38.832031 159.875 C 39.496094 160.140625 40.210938 160.300781 40.945312 160.335938 " fill-opacity="1" fill-rule="nonzero"/><path fill="#537de6" d="M 42.28125 150.382812 C 42.28125 150.378906 42.28125 150.378906 42.28125 150.375 C 42.28125 150.378906 42.28125 150.378906 42.28125 150.382812 M 42.28125 150.359375 C 42.28125 150.355469 42.28125 150.351562 42.28125 150.347656 C 42.28125 150.351562 42.28125 150.355469 42.28125 150.359375 M 42.277344 150.332031 C 42.277344 150.324219 42.277344 150.320312 42.277344 150.3125 C 42.277344 150.320312 42.277344 150.324219 42.277344 150.332031 M 42.277344 150.304688 C 42.273438 150.296875 42.273438 150.292969 42.273438 150.289062 C 42.273438 150.292969 42.273438 150.296875 42.277344 150.304688 M 42.273438 150.28125 C 42.273438 150.261719 42.269531 150.246094 42.269531 150.230469 C 42.269531 150.246094 42.273438 150.261719 42.273438 150.28125 M 42.269531 150.226562 C 42.269531 150.21875 42.265625 150.210938 42.265625 150.199219 C 42.265625 150.210938 42.269531 150.21875 42.269531 150.226562 M 42.265625 150.199219 C 42.191406 149.378906 42.085938 148.554688 41.953125 147.738281 C 42.085938 148.554688 42.191406 149.378906 42.265625 150.199219 " fill-opacity="1" fill-rule="nonzero"/><path fill="#373a98" d="M 41.273438 160.34375 C 41.164062 160.34375 41.054688 160.339844 40.945312 160.335938 C 40.210938 160.300781 39.496094 160.140625 38.832031 159.875 C 37.21875 159.230469 35.90625 157.960938 35.0625 156.355469 C 35.878906 157.085938 37.714844 157.65625 39.019531 157.988281 C 39.136719 158.019531 39.253906 158.035156 39.371094 158.035156 C 40.050781 158.035156 40.703125 157.5625 40.867188 156.886719 C 41.578125 153.84375 42.011719 150.769531 41.953125 147.738281 C 42.085938 148.554688 42.191406 149.378906 42.265625 150.199219 C 42.265625 150.210938 42.269531 150.21875 42.269531 150.226562 C 42.269531 150.226562 42.269531 150.226562 42.269531 150.230469 C 42.269531 150.246094 42.273438 150.261719 42.273438 150.28125 C 42.273438 150.28125 42.273438 150.285156 42.273438 150.289062 C 42.273438 150.292969 42.273438 150.296875 42.277344 150.304688 C 42.277344 150.308594 42.277344 150.3125 42.277344 150.3125 C 42.277344 150.320312 42.277344 150.324219 42.277344 150.332031 C 42.277344 150.335938 42.277344 150.34375 42.28125 150.347656 C 42.28125 150.351562 42.28125 150.355469 42.28125 150.359375 C 42.28125 150.363281 42.28125 150.371094 42.28125 150.375 C 42.28125 150.378906 42.28125 150.378906 42.28125 150.382812 C 42.507812 153.03125 42.429688 155.695312 42.046875 158.332031 C 42.03125 158.441406 42.015625 158.550781 41.996094 158.660156 C 41.910156 159.222656 41.808594 159.785156 41.691406 160.34375 C 41.652344 160.34375 41.609375 160.34375 41.566406 160.34375 C 41.472656 160.34375 41.378906 160.34375 41.28125 160.34375 C 41.28125 160.34375 41.277344 160.34375 41.273438 160.34375 " fill-opacity="1" fill-rule="nonzero"/><g fill="#000000" fill-opacity="1"><g transform="translate(103.699587, 214.22709)"><g><path d="M 34.011719 -0.648438 L 17.546875 -43.003906 C 17.386719 -43.4375 16.628906 -43.4375 16.464844 -43.003906 L 0.0546875 -0.648438 C -0.109375 -0.324219 0.109375 0 0.597656 0 L 8.015625 0 C 8.230469 0 8.503906 -0.109375 8.558594 -0.324219 L 17.007812 -24.480469 L 25.5625 -0.324219 C 25.617188 -0.109375 25.886719 0 26.050781 0 L 33.523438 0 C 33.902344 0 34.175781 -0.324219 34.011719 -0.648438 Z M 34.011719 -0.648438 "/></g></g></g><g fill="#000000" fill-opacity="1"><g transform="translate(139.44245, 214.22709)"><g><path d="M 19.875 -24.046875 C 16.789062 -25.507812 13.757812 -25.507812 13.484375 -25.507812 C 10.722656 -25.507812 8.070312 -27.132812 8.070312 -30.273438 C 8.070312 -33.742188 10.507812 -35.527344 13.484375 -35.527344 C 16.300781 -35.527344 18.683594 -34.066406 18.792969 -30.980469 C 18.792969 -30.816406 19.0625 -30.546875 19.390625 -30.546875 L 26.160156 -30.546875 C 26.539062 -30.546875 26.808594 -30.816406 26.753906 -30.980469 C 26.648438 -38.34375 20.90625 -43.328125 13.484375 -43.328125 C 6.554688 -43.328125 0 -38.398438 0 -30.273438 C 0 -25.238281 2.546875 -21.394531 7.039062 -19.335938 C 10.183594 -17.871094 13.105469 -17.871094 13.484375 -17.871094 C 15.921875 -17.765625 18.902344 -15.816406 18.902344 -12.621094 C 18.902344 -9.75 16.355469 -7.800781 13.484375 -7.800781 C 13.484375 -7.800781 13.484375 -7.800781 13.429688 -7.800781 L 13.429688 0 C 13.484375 0 13.484375 0 13.484375 0 C 20.417969 0 26.917969 -4.496094 26.917969 -12.621094 C 26.917969 -17.710938 24.425781 -21.933594 19.875 -24.046875 Z M 19.875 -24.046875 "/></g></g></g><g fill="#000000" fill-opacity="1"><g transform="translate(167.711806, 214.22709)"><g><path d="M 34.554688 -0.8125 L 17.167969 -21.285156 L 34.390625 -42.515625 C 34.769531 -42.894531 34.5 -43.328125 33.902344 -43.328125 L 25.074219 -43.328125 C 24.96875 -43.328125 24.644531 -43.21875 24.589844 -43.164062 L 8.285156 -23.125 L 8.285156 -42.839844 C 8.285156 -43.058594 8.070312 -43.328125 7.746094 -43.328125 L 0.597656 -43.328125 C 0.269531 -43.328125 0 -43.058594 0 -42.839844 L 0 -2.652344 C 0 -2.652344 10.5625 -14.625 11.644531 -15.761719 L 24.261719 -0.164062 C 24.316406 -0.109375 24.644531 0 24.75 0 L 34.066406 0 C 34.609375 0 34.878906 -0.378906 34.554688 -0.8125 Z M 34.554688 -0.8125 "/></g></g></g><g fill="#000000" fill-opacity="1"><g transform="translate(204.158702, 214.22709)"><g/></g></g><g fill="#000000" fill-opacity="1"><g transform="translate(217.697665, 214.22709)"><g><path d="M 34.554688 -0.8125 L 17.167969 -21.285156 L 34.390625 -42.515625 C 34.769531 -42.894531 34.5 -43.328125 33.902344 -43.328125 L 25.074219 -43.328125 C 24.96875 -43.328125 24.644531 -43.21875 24.589844 -43.164062 L 8.285156 -23.125 L 8.285156 -42.839844 C 8.285156 -43.058594 8.070312 -43.328125 7.746094 -43.328125 L 0.597656 -43.328125 C 0.269531 -43.328125 0 -43.058594 0 -42.839844 L 0 -2.652344 C 0 -2.652344 10.5625 -14.625 11.644531 -15.761719 L 24.261719 -0.164062 C 24.316406 -0.109375 24.644531 0 24.75 0 L 34.066406 0 C 34.609375 0 34.878906 -0.378906 34.554688 -0.8125 Z M 34.554688 -0.8125 "/></g></g></g><g fill="#000000" fill-opacity="1"><g transform="translate(254.144561, 214.22709)"><g><path d="M 34.011719 -0.648438 L 17.546875 -43.003906 C 17.386719 -43.4375 16.628906 -43.4375 16.464844 -43.003906 L 0.0546875 -0.648438 C -0.109375 -0.324219 0.109375 0 0.597656 0 L 8.015625 0 C 8.230469 0 8.503906 -0.109375 8.558594 -0.324219 L 17.007812 -24.480469 L 25.5625 -0.324219 C 25.617188 -0.109375 25.886719 0 26.050781 0 L 33.523438 0 C 33.902344 0 34.175781 -0.324219 34.011719 -0.648438 Z M 34.011719 -0.648438 "/></g></g></g><g fill="#000000" fill-opacity="1"><g transform="translate(289.887424, 214.22709)"><g><path d="M 17.65625 -7.417969 L 13.324219 -7.417969 L 13.324219 -43.328125 L 5.035156 -43.328125 L 5.035156 -7.417969 L 0.597656 -7.417969 C 0.269531 -7.417969 0 -7.203125 0 -6.933594 L 0 -0.488281 C 0 -0.269531 0.269531 0 0.597656 0 L 17.65625 0 C 18.035156 0 18.25 -0.269531 18.25 -0.488281 L 18.25 -6.933594 C 18.25 -7.203125 18.035156 -7.417969 17.65625 -7.417969 Z M 17.65625 -7.417969 "/></g></g></g><g fill="#000000" fill-opacity="1"><g transform="translate(309.058605, 214.22709)"><g><path d="M 34.011719 -0.648438 L 17.546875 -43.003906 C 17.386719 -43.4375 16.628906 -43.4375 16.464844 -43.003906 L 0.0546875 -0.648438 C -0.109375 -0.324219 0.109375 0 0.597656 0 L 8.015625 0 C 8.230469 0 8.503906 -0.109375 8.558594 -0.324219 L 17.007812 -24.480469 L 25.5625 -0.324219 C 25.617188 -0.109375 25.886719 0 26.050781 0 L 33.523438 0 C 33.902344 0 34.175781 -0.324219 34.011719 -0.648438 Z M 34.011719 -0.648438 "/></g></g></g></svg>