<svg xmlns="http://www.w3.org/2000/svg" xmlns:xlink="http://www.w3.org/1999/xlink" width="500" zoomAndPan="magnify" viewBox="0 0 375 374.999991" height="500" preserveAspectRatio="xMidYMid meet" version="1.0"><defs><clipPath id="id1"><path d="M 123 241 L 179 241 L 179 297.210938 L 123 297.210938 Z M 123 241 " clip-rule="nonzero"/></clipPath><clipPath id="id2"><path d="M 77.78125 186.296875 C 77.78125 125.046875 127.433594 75.394531 188.679688 75.394531 C 249.929688 75.394531 299.582031 125.046875 299.582031 186.296875 C 299.582031 247.542969 249.929688 297.195312 188.679688 297.195312 C 127.433594 297.195312 77.78125 247.542969 77.78125 186.296875 " clip-rule="nonzero"/></clipPath><clipPath id="id3"><path d="M 199.101562 241 L 255.328125 241 L 255.328125 297.210938 L 199.101562 297.210938 Z M 199.101562 241 " clip-rule="nonzero"/></clipPath><clipPath id="id4"><path d="M 77.78125 186.296875 C 77.78125 125.046875 127.433594 75.394531 188.679688 75.394531 C 249.929688 75.394531 299.582031 125.046875 299.582031 186.296875 C 299.582031 247.542969 249.929688 297.195312 188.679688 297.195312 C 127.433594 297.195312 77.78125 247.542969 77.78125 186.296875 " clip-rule="nonzero"/></clipPath><clipPath id="id5"><path d="M 215.453125 252.460938 L 255.328125 252.460938 L 255.328125 287.746094 L 215.453125 287.746094 Z M 215.453125 252.460938 " clip-rule="nonzero"/></clipPath><clipPath id="id6"><path d="M 77.78125 186.296875 C 77.78125 125.046875 127.433594 75.394531 188.679688 75.394531 C 249.929688 75.394531 299.582031 125.046875 299.582031 186.296875 C 299.582031 247.542969 249.929688 297.195312 188.679688 297.195312 C 127.433594 297.195312 77.78125 247.542969 77.78125 186.296875 " clip-rule="nonzero"/></clipPath><clipPath id="id7"><path d="M 123.078125 254.753906 L 160.375 254.753906 L 160.375 288 L 123.078125 288 Z M 123.078125 254.753906 " clip-rule="nonzero"/></clipPath><clipPath id="id8"><path d="M 77.78125 186.296875 C 77.78125 125.046875 127.433594 75.394531 188.679688 75.394531 C 249.929688 75.394531 299.582031 125.046875 299.582031 186.296875 C 299.582031 247.542969 249.929688 297.195312 188.679688 297.195312 C 127.433594 297.195312 77.78125 247.542969 77.78125 186.296875 " clip-rule="nonzero"/></clipPath><clipPath id="id9"><path d="M 125.375 233.238281 L 252 233.238281 L 252 297.210938 L 125.375 297.210938 Z M 125.375 233.238281 " clip-rule="nonzero"/></clipPath><clipPath id="id10"><path d="M 77.78125 186.296875 C 77.78125 125.046875 127.433594 75.394531 188.679688 75.394531 C 249.929688 75.394531 299.582031 125.046875 299.582031 186.296875 C 299.582031 247.542969 249.929688 297.195312 188.679688 297.195312 C 127.433594 297.195312 77.78125 247.542969 77.78125 186.296875 " clip-rule="nonzero"/></clipPath><clipPath id="id11"><path d="M 165.539062 233.238281 L 212 233.238281 L 212 252.171875 L 165.539062 252.171875 Z M 165.539062 233.238281 " clip-rule="nonzero"/></clipPath><clipPath id="id12"><path d="M 77.78125 186.296875 C 77.78125 125.046875 127.433594 75.394531 188.679688 75.394531 C 249.929688 75.394531 299.582031 125.046875 299.582031 186.296875 C 299.582031 247.542969 249.929688 297.195312 188.679688 297.195312 C 127.433594 297.195312 77.78125 247.542969 77.78125 186.296875 " clip-rule="nonzero"/></clipPath><clipPath id="id13"><path d="M 160.085938 253.894531 L 217.460938 253.894531 L 217.460938 269.386719 L 160.085938 269.386719 Z M 160.085938 253.894531 " clip-rule="nonzero"/></clipPath><clipPath id="id14"><path d="M 77.78125 186.296875 C 77.78125 125.046875 127.433594 75.394531 188.679688 75.394531 C 249.929688 75.394531 299.582031 125.046875 299.582031 186.296875 C 299.582031 247.542969 249.929688 297.195312 188.679688 297.195312 C 127.433594 297.195312 77.78125 247.542969 77.78125 186.296875 " clip-rule="nonzero"/></clipPath><clipPath id="id15"><path d="M 125.375 119.0625 L 252 119.0625 L 252 245.863281 L 125.375 245.863281 Z M 125.375 119.0625 " clip-rule="nonzero"/></clipPath><clipPath id="id16"><path d="M 77.78125 186.296875 C 77.78125 125.046875 127.433594 75.394531 188.679688 75.394531 C 249.929688 75.394531 299.582031 125.046875 299.582031 186.296875 C 299.582031 247.542969 249.929688 297.195312 188.679688 297.195312 C 127.433594 297.195312 77.78125 247.542969 77.78125 186.296875 " clip-rule="nonzero"/></clipPath><clipPath id="id17"><path d="M 130 195.660156 L 247.582031 195.660156 L 247.582031 245.863281 L 130 245.863281 Z M 130 195.660156 " clip-rule="nonzero"/></clipPath><clipPath id="id18"><path d="M 77.78125 186.296875 C 77.78125 125.046875 127.433594 75.394531 188.679688 75.394531 C 249.929688 75.394531 299.582031 125.046875 299.582031 186.296875 C 299.582031 247.542969 249.929688 297.195312 188.679688 297.195312 C 127.433594 297.195312 77.78125 247.542969 77.78125 186.296875 " clip-rule="nonzero"/></clipPath><clipPath id="id19"><path d="M 164.675781 273.117188 L 212.871094 273.117188 L 212.871094 297.210938 L 164.675781 297.210938 Z M 164.675781 273.117188 " clip-rule="nonzero"/></clipPath><clipPath id="id20"><path d="M 77.78125 186.296875 C 77.78125 125.046875 127.433594 75.394531 188.679688 75.394531 C 249.929688 75.394531 299.582031 125.046875 299.582031 186.296875 C 299.582031 247.542969 249.929688 297.195312 188.679688 297.195312 C 127.433594 297.195312 77.78125 247.542969 77.78125 186.296875 " clip-rule="nonzero"/></clipPath><clipPath id="id21"><path d="M 168.691406 277.132812 L 208.855469 277.132812 L 208.855469 297.210938 L 168.691406 297.210938 Z M 168.691406 277.132812 " clip-rule="nonzero"/></clipPath><clipPath id="id22"><path d="M 77.78125 186.296875 C 77.78125 125.046875 127.433594 75.394531 188.679688 75.394531 C 249.929688 75.394531 299.582031 125.046875 299.582031 186.296875 C 299.582031 247.542969 249.929688 297.195312 188.679688 297.195312 C 127.433594 297.195312 77.78125 247.542969 77.78125 186.296875 " clip-rule="nonzero"/></clipPath><clipPath id="id23"><path d="M 143.160156 136.851562 L 234.386719 136.851562 L 234.386719 228 L 143.160156 228 Z M 143.160156 136.851562 " clip-rule="nonzero"/></clipPath><clipPath id="id24"><path d="M 77.78125 186.296875 C 77.78125 125.046875 127.433594 75.394531 188.679688 75.394531 C 249.929688 75.394531 299.582031 125.046875 299.582031 186.296875 C 299.582031 247.542969 249.929688 297.195312 188.679688 297.195312 C 127.433594 297.195312 77.78125 247.542969 77.78125 186.296875 " clip-rule="nonzero"/></clipPath><clipPath id="id25"><path d="M 197.667969 167.257812 L 227.214844 167.257812 L 227.214844 178.445312 L 197.667969 178.445312 Z M 197.667969 167.257812 " clip-rule="nonzero"/></clipPath><clipPath id="id26"><path d="M 77.78125 186.296875 C 77.78125 125.046875 127.433594 75.394531 188.679688 75.394531 C 249.929688 75.394531 299.582031 125.046875 299.582031 186.296875 C 299.582031 247.542969 249.929688 297.195312 188.679688 297.195312 C 127.433594 297.195312 77.78125 247.542969 77.78125 186.296875 " clip-rule="nonzero"/></clipPath><clipPath id="id27"><path d="M 183.898438 190.496094 L 212 190.496094 L 212 206.558594 L 183.898438 206.558594 Z M 183.898438 190.496094 " clip-rule="nonzero"/></clipPath><clipPath id="id28"><path d="M 77.78125 186.296875 C 77.78125 125.046875 127.433594 75.394531 188.679688 75.394531 C 249.929688 75.394531 299.582031 125.046875 299.582031 186.296875 C 299.582031 247.542969 249.929688 297.195312 188.679688 297.195312 C 127.433594 297.195312 77.78125 247.542969 77.78125 186.296875 " clip-rule="nonzero"/></clipPath><clipPath id="id29"><path d="M 151.765625 167.257812 L 181.316406 167.257812 L 181.316406 178.445312 L 151.765625 178.445312 Z M 151.765625 167.257812 " clip-rule="nonzero"/></clipPath><clipPath id="id30"><path d="M 77.78125 186.296875 C 77.78125 125.046875 127.433594 75.394531 188.679688 75.394531 C 249.929688 75.394531 299.582031 125.046875 299.582031 186.296875 C 299.582031 247.542969 249.929688 297.195312 188.679688 297.195312 C 127.433594 297.195312 77.78125 247.542969 77.78125 186.296875 " clip-rule="nonzero"/></clipPath><clipPath id="id31"><path d="M 217.75 244.429688 L 249.589844 244.429688 L 249.589844 258.773438 L 217.75 258.773438 Z M 217.75 244.429688 " clip-rule="nonzero"/></clipPath><clipPath id="id32"><path d="M 77.78125 186.296875 C 77.78125 125.046875 127.433594 75.394531 188.679688 75.394531 C 249.929688 75.394531 299.582031 125.046875 299.582031 186.296875 C 299.582031 247.542969 249.929688 297.195312 188.679688 297.195312 C 127.433594 297.195312 77.78125 247.542969 77.78125 186.296875 " clip-rule="nonzero"/></clipPath><clipPath id="id33"><path d="M 129.105469 244.429688 L 161 244.429688 L 161 258.773438 L 129.105469 258.773438 Z M 129.105469 244.429688 " clip-rule="nonzero"/></clipPath><clipPath id="id34"><path d="M 77.78125 186.296875 C 77.78125 125.046875 127.433594 75.394531 188.679688 75.394531 C 249.929688 75.394531 299.582031 125.046875 299.582031 186.296875 C 299.582031 247.542969 249.929688 297.195312 188.679688 297.195312 C 127.433594 297.195312 77.78125 247.542969 77.78125 186.296875 " clip-rule="nonzero"/></clipPath><clipPath id="id35"><path d="M 151.195312 123.652344 L 226.355469 123.652344 L 226.355469 140 L 151.195312 140 Z M 151.195312 123.652344 " clip-rule="nonzero"/></clipPath><clipPath id="id36"><path d="M 77.78125 186.296875 C 77.78125 125.046875 127.433594 75.394531 188.679688 75.394531 C 249.929688 75.394531 299.582031 125.046875 299.582031 186.296875 C 299.582031 247.542969 249.929688 297.195312 188.679688 297.195312 C 127.433594 297.195312 77.78125 247.542969 77.78125 186.296875 " clip-rule="nonzero"/></clipPath><clipPath id="id37"><path d="M 156.070312 209.429688 L 221.476562 209.429688 L 221.476562 225.207031 L 156.070312 225.207031 Z M 156.070312 209.429688 " clip-rule="nonzero"/></clipPath><clipPath id="id38"><path d="M 77.78125 186.296875 C 77.78125 125.046875 127.433594 75.394531 188.679688 75.394531 C 249.929688 75.394531 299.582031 125.046875 299.582031 186.296875 C 299.582031 247.542969 249.929688 297.195312 188.679688 297.195312 C 127.433594 297.195312 77.78125 247.542969 77.78125 186.296875 " clip-rule="nonzero"/></clipPath><clipPath id="id39"><path d="M 159 141 L 219.183594 141 L 219.183594 159.800781 L 159 159.800781 Z M 159 141 " clip-rule="nonzero"/></clipPath><clipPath id="id40"><path d="M 77.78125 186.296875 C 77.78125 125.046875 127.433594 75.394531 188.679688 75.394531 C 249.929688 75.394531 299.582031 125.046875 299.582031 186.296875 C 299.582031 247.542969 249.929688 297.195312 188.679688 297.195312 C 127.433594 297.195312 77.78125 247.542969 77.78125 186.296875 " clip-rule="nonzero"/></clipPath><clipPath id="id41"><path d="M 244.140625 159 L 271.394531 159 L 271.394531 205.988281 L 244.140625 205.988281 Z M 244.140625 159 " clip-rule="nonzero"/></clipPath><clipPath id="id42"><path d="M 77.78125 186.296875 C 77.78125 125.046875 127.433594 75.394531 188.679688 75.394531 C 249.929688 75.394531 299.582031 125.046875 299.582031 186.296875 C 299.582031 247.542969 249.929688 297.195312 188.679688 297.195312 C 127.433594 297.195312 77.78125 247.542969 77.78125 186.296875 " clip-rule="nonzero"/></clipPath><clipPath id="id43"><path d="M 249.019531 162.09375 L 267 162.09375 L 267 178.160156 L 249.019531 178.160156 Z M 249.019531 162.09375 " clip-rule="nonzero"/></clipPath><clipPath id="id44"><path d="M 77.78125 186.296875 C 77.78125 125.046875 127.433594 75.394531 188.679688 75.394531 C 249.929688 75.394531 299.582031 125.046875 299.582031 186.296875 C 299.582031 247.542969 249.929688 297.195312 188.679688 297.195312 C 127.433594 297.195312 77.78125 247.542969 77.78125 186.296875 " clip-rule="nonzero"/></clipPath><clipPath id="id45"><path d="M 249.019531 204.265625 L 256.476562 204.265625 L 256.476562 205.988281 L 249.019531 205.988281 Z M 249.019531 204.265625 " clip-rule="nonzero"/></clipPath><clipPath id="id46"><path d="M 77.78125 186.296875 C 77.78125 125.046875 127.433594 75.394531 188.679688 75.394531 C 249.929688 75.394531 299.582031 125.046875 299.582031 186.296875 C 299.582031 247.542969 249.929688 297.195312 188.679688 297.195312 C 127.433594 297.195312 77.78125 247.542969 77.78125 186.296875 " clip-rule="nonzero"/></clipPath><clipPath id="id47"><path d="M 244.140625 163.527344 L 269 163.527344 L 269 205.988281 L 244.140625 205.988281 Z M 244.140625 163.527344 " clip-rule="nonzero"/></clipPath><clipPath id="id48"><path d="M 77.78125 186.296875 C 77.78125 125.046875 127.433594 75.394531 188.679688 75.394531 C 249.929688 75.394531 299.582031 125.046875 299.582031 186.296875 C 299.582031 247.542969 249.929688 297.195312 188.679688 297.195312 C 127.433594 297.195312 77.78125 247.542969 77.78125 186.296875 " clip-rule="nonzero"/></clipPath><clipPath id="id49"><path d="M 105.582031 159 L 133 159 L 133 205.988281 L 105.582031 205.988281 Z M 105.582031 159 " clip-rule="nonzero"/></clipPath><clipPath id="id50"><path d="M 77.78125 186.296875 C 77.78125 125.046875 127.433594 75.394531 188.679688 75.394531 C 249.929688 75.394531 299.582031 125.046875 299.582031 186.296875 C 299.582031 247.542969 249.929688 297.195312 188.679688 297.195312 C 127.433594 297.195312 77.78125 247.542969 77.78125 186.296875 " clip-rule="nonzero"/></clipPath><clipPath id="id51"><path d="M 110.171875 162.09375 L 128 162.09375 L 128 178.160156 L 110.171875 178.160156 Z M 110.171875 162.09375 " clip-rule="nonzero"/></clipPath><clipPath id="id52"><path d="M 77.78125 186.296875 C 77.78125 125.046875 127.433594 75.394531 188.679688 75.394531 C 249.929688 75.394531 299.582031 125.046875 299.582031 186.296875 C 299.582031 247.542969 249.929688 297.195312 188.679688 297.195312 C 127.433594 297.195312 77.78125 247.542969 77.78125 186.296875 " clip-rule="nonzero"/></clipPath><clipPath id="id53"><path d="M 130 205.699219 L 130.539062 205.699219 L 130.539062 205.988281 L 130 205.988281 Z M 130 205.699219 " clip-rule="nonzero"/></clipPath><clipPath id="id54"><path d="M 77.78125 186.296875 C 77.78125 125.046875 127.433594 75.394531 188.679688 75.394531 C 249.929688 75.394531 299.582031 125.046875 299.582031 186.296875 C 299.582031 247.542969 249.929688 297.195312 188.679688 297.195312 C 127.433594 297.195312 77.78125 247.542969 77.78125 186.296875 " clip-rule="nonzero"/></clipPath><clipPath id="id55"><path d="M 120.785156 204.265625 L 128.242188 204.265625 L 128.242188 205.988281 L 120.785156 205.988281 Z M 120.785156 204.265625 " clip-rule="nonzero"/></clipPath><clipPath id="id56"><path d="M 77.78125 186.296875 C 77.78125 125.046875 127.433594 75.394531 188.679688 75.394531 C 249.929688 75.394531 299.582031 125.046875 299.582031 186.296875 C 299.582031 247.542969 249.929688 297.195312 188.679688 297.195312 C 127.433594 297.195312 77.78125 247.542969 77.78125 186.296875 " clip-rule="nonzero"/></clipPath><clipPath id="id57"><path d="M 130.539062 199.101562 L 131.6875 199.101562 L 131.6875 205.988281 L 130.539062 205.988281 Z M 130.539062 199.101562 " clip-rule="nonzero"/></clipPath><clipPath id="id58"><path d="M 77.78125 186.296875 C 77.78125 125.046875 127.433594 75.394531 188.679688 75.394531 C 249.929688 75.394531 299.582031 125.046875 299.582031 186.296875 C 299.582031 247.542969 249.929688 297.195312 188.679688 297.195312 C 127.433594 297.195312 77.78125 247.542969 77.78125 186.296875 " clip-rule="nonzero"/></clipPath><clipPath id="id59"><path d="M 131.113281 163.527344 L 132.546875 163.527344 L 132.546875 172.710938 L 131.113281 172.710938 Z M 131.113281 163.527344 " clip-rule="nonzero"/></clipPath><clipPath id="id60"><path d="M 77.78125 186.296875 C 77.78125 125.046875 127.433594 75.394531 188.679688 75.394531 C 249.929688 75.394531 299.582031 125.046875 299.582031 186.296875 C 299.582031 247.542969 249.929688 297.195312 188.679688 297.195312 C 127.433594 297.195312 77.78125 247.542969 77.78125 186.296875 " clip-rule="nonzero"/></clipPath><clipPath id="id61"><path d="M 108.164062 163.527344 L 133 163.527344 L 133 205.988281 L 108.164062 205.988281 Z M 108.164062 163.527344 " clip-rule="nonzero"/></clipPath><clipPath id="id62"><path d="M 77.78125 186.296875 C 77.78125 125.046875 127.433594 75.394531 188.679688 75.394531 C 249.929688 75.394531 299.582031 125.046875 299.582031 186.296875 C 299.582031 247.542969 249.929688 297.195312 188.679688 297.195312 C 127.433594 297.195312 77.78125 247.542969 77.78125 186.296875 " clip-rule="nonzero"/></clipPath><clipPath id="id63"><path d="M 72.875 72.875 L 302.375 72.875 L 302.375 302.375 L 72.875 302.375 Z M 72.875 72.875 " clip-rule="nonzero"/></clipPath></defs><path fill="#e4edff" d="M 77.78125 186.296875 C 77.78125 125.046875 127.433594 75.394531 188.679688 75.394531 C 249.929688 75.394531 299.582031 125.046875 299.582031 186.296875 C 299.582031 247.542969 249.929688 297.195312 188.679688 297.195312 C 127.433594 297.195312 77.78125 247.542969 77.78125 186.296875 " fill-opacity="1" fill-rule="nonzero"/><g clip-path="url(#id1)"><g clip-path="url(#id2)"><path fill="#474ca8" d="M 178.964844 269.101562 C 178.964844 253.664062 166.449219 241.148438 151.011719 241.148438 C 135.574219 241.148438 123.0625 253.664062 123.0625 269.101562 C 123.0625 284.539062 135.574219 297.054688 151.011719 297.054688 C 166.449219 297.054688 178.964844 284.539062 178.964844 269.101562 " fill-opacity="1" fill-rule="nonzero"/></g></g><g clip-path="url(#id3)"><g clip-path="url(#id4)"><path fill="#474ca8" d="M 199.355469 269.101562 C 199.355469 253.664062 211.867188 241.148438 227.304688 241.148438 C 242.742188 241.148438 255.257812 253.664062 255.257812 269.101562 C 255.257812 284.539062 242.742188 297.054688 227.304688 297.054688 C 211.867188 297.054688 199.355469 284.539062 199.355469 269.101562 " fill-opacity="1" fill-rule="nonzero"/></g></g><g clip-path="url(#id5)"><g clip-path="url(#id6)"><path fill="#373a98" d="M 233.636719 287.707031 C 228.484375 274.539062 222.433594 262.242188 215.738281 252.699219 C 215.96875 252.914062 223.332031 259.878906 228.707031 269.101562 C 231.199219 273.375 233.757812 277.53125 235.808594 280.796875 C 237.023438 282.722656 239.121094 283.804688 241.222656 283.804688 C 241.339844 283.804688 241.457031 283.800781 241.578125 283.792969 C 238.992188 285.199219 236.34375 286.503906 233.636719 287.707031 M 246.96875 280.660156 C 251.140625 276.515625 254.011719 271.066406 254.917969 264.96875 C 255.117188 266.308594 255.253906 267.671875 255.257812 269.066406 C 255.257812 269.078125 255.257812 269.089844 255.257812 269.101562 C 255.257812 269.386719 255.253906 269.675781 255.242188 269.957031 C 255.1875 271.878906 254.933594 273.75 254.507812 275.558594 C 252.070312 277.355469 249.554688 279.0625 246.96875 280.660156 " fill-opacity="1" fill-rule="nonzero"/></g></g><g clip-path="url(#id7)"><g clip-path="url(#id8)"><path fill="#373a98" d="M 143.917969 287.792969 C 140.957031 286.484375 138.054688 285.046875 135.234375 283.492188 C 135.855469 283.703125 136.496094 283.804688 137.136719 283.804688 C 139.234375 283.804688 141.324219 282.722656 142.53125 280.796875 C 144.578125 277.53125 147.132812 273.375 149.613281 269.101562 C 153.191406 262.945312 157.648438 257.800781 160.289062 254.992188 C 154.199219 264.191406 148.675781 275.621094 143.917969 287.792969 M 133.363281 282.4375 C 130.183594 280.601562 127.097656 278.613281 124.125 276.480469 C 123.484375 274.128906 123.140625 271.65625 123.140625 269.101562 C 123.140625 267.695312 123.28125 266.320312 123.480469 264.96875 C 124.519531 271.980469 128.152344 278.140625 133.363281 282.4375 " fill-opacity="1" fill-rule="nonzero"/></g></g><g clip-path="url(#id9)"><g clip-path="url(#id10)"><path fill="#70a2ff" d="M 251.980469 367.246094 C 251.980469 402.144531 223.691406 430.429688 188.792969 430.429688 C 153.898438 430.429688 125.605469 402.144531 125.605469 367.246094 C 125.605469 332.347656 153.898438 233.511719 188.792969 233.511719 C 223.691406 233.511719 251.980469 332.347656 251.980469 367.246094 " fill-opacity="1" fill-rule="nonzero"/></g></g><g clip-path="url(#id11)"><g clip-path="url(#id12)"><path fill="#474ca8" d="M 188.792969 252.171875 C 196.976562 252.171875 204.769531 250.566406 211.945312 247.738281 C 204.773438 238.980469 196.96875 233.511719 188.792969 233.511719 C 180.621094 233.511719 172.816406 238.980469 165.644531 247.738281 C 172.820312 250.566406 180.613281 252.171875 188.792969 252.171875 " fill-opacity="1" fill-rule="nonzero"/></g></g><g clip-path="url(#id13)"><g clip-path="url(#id14)"><path fill="#84c4ff" d="M 188.792969 269.101562 C 179.753906 269.101562 170.988281 268.398438 162.542969 267.140625 C 160.75 266.875 159.789062 264.839844 160.722656 263.285156 C 162.539062 260.273438 164.40625 257.453125 166.339844 254.914062 C 166.820312 254.28125 167.558594 253.949219 168.328125 253.949219 C 168.558594 253.949219 168.796875 253.976562 169.027344 254.039062 C 175.335938 255.722656 181.953125 256.648438 188.792969 256.648438 C 195.632812 256.648438 202.25 255.722656 208.558594 254.039062 C 208.792969 253.976562 209.027344 253.949219 209.261719 253.949219 C 210.03125 253.949219 210.765625 254.28125 211.25 254.914062 C 213.179688 257.453125 215.050781 260.273438 216.863281 263.285156 C 217.796875 264.839844 216.835938 266.875 215.046875 267.140625 C 206.597656 268.398438 197.832031 269.101562 188.792969 269.101562 " fill-opacity="1" fill-rule="nonzero"/></g></g><g clip-path="url(#id15)"><g clip-path="url(#id16)"><path fill="#70a2ff" d="M 125.605469 182.488281 C 125.605469 147.589844 153.898438 119.300781 188.792969 119.300781 C 223.691406 119.300781 251.980469 147.589844 251.980469 182.488281 C 251.980469 217.386719 223.691406 245.675781 188.792969 245.675781 C 153.898438 245.675781 125.605469 217.386719 125.605469 182.488281 " fill-opacity="1" fill-rule="nonzero"/></g></g><g clip-path="url(#id17)"><g clip-path="url(#id18)"><path fill="#577ce6" d="M 188.792969 245.675781 C 162.171875 245.675781 139.394531 229.210938 130.089844 205.910156 C 130.230469 205.910156 130.371094 205.910156 130.511719 205.910156 C 130.519531 205.878906 130.523438 205.851562 130.53125 205.820312 C 130.535156 205.808594 130.535156 205.796875 130.539062 205.785156 C 130.542969 205.765625 130.546875 205.75 130.546875 205.734375 C 130.550781 205.71875 130.554688 205.707031 130.558594 205.691406 C 130.5625 205.675781 130.5625 205.660156 130.566406 205.644531 C 130.570312 205.628906 130.574219 205.613281 130.578125 205.601562 C 130.578125 205.585938 130.582031 205.570312 130.585938 205.558594 C 130.589844 205.539062 130.59375 205.523438 130.59375 205.507812 C 130.597656 205.496094 130.601562 205.480469 130.601562 205.46875 C 130.605469 205.453125 130.609375 205.433594 130.613281 205.417969 C 130.617188 205.40625 130.617188 205.394531 130.621094 205.382812 C 130.625 205.363281 130.628906 205.34375 130.632812 205.328125 C 130.632812 205.316406 130.636719 205.304688 130.636719 205.296875 C 130.640625 205.273438 130.644531 205.257812 130.648438 205.238281 C 130.652344 205.226562 130.652344 205.21875 130.65625 205.207031 C 130.660156 205.1875 130.664062 205.167969 130.667969 205.144531 C 130.667969 205.136719 130.671875 205.128906 130.671875 205.121094 C 130.675781 205.101562 130.683594 205.078125 130.6875 205.054688 C 130.6875 205.050781 130.6875 205.042969 130.691406 205.039062 C 130.695312 205.015625 130.699219 204.988281 130.703125 204.964844 C 130.703125 204.960938 130.707031 204.957031 130.707031 204.953125 C 130.710938 204.925781 130.714844 204.902344 130.722656 204.875 C 130.722656 204.875 130.722656 204.871094 130.722656 204.871094 C 131.03125 203.304688 131.308594 201.734375 131.550781 200.160156 C 131.554688 200.140625 131.558594 200.117188 131.5625 200.09375 C 131.601562 199.851562 131.636719 199.609375 131.671875 199.363281 C 131.671875 199.363281 131.671875 199.363281 131.671875 199.359375 C 131.675781 199.347656 131.675781 199.339844 131.679688 199.328125 C 131.855469 198.136719 132.011719 196.945312 132.148438 195.75 C 142.453125 216.625 163.9375 230.984375 188.792969 230.984375 C 213.332031 230.984375 234.582031 216.992188 245.035156 196.554688 C 245.421875 199.6875 245.933594 202.808594 246.574219 205.910156 C 246.882812 205.910156 247.191406 205.910156 247.5 205.910156 C 238.191406 229.210938 215.417969 245.675781 188.792969 245.675781 " fill-opacity="1" fill-rule="nonzero"/></g></g><g clip-path="url(#id19)"><g clip-path="url(#id20)"><path fill="#474ca8" d="M 164.941406 297.054688 C 164.941406 283.878906 175.621094 273.199219 188.792969 273.199219 C 201.96875 273.199219 212.644531 283.878906 212.644531 297.054688 C 212.644531 310.226562 201.96875 320.90625 188.792969 320.90625 C 175.621094 320.90625 164.941406 310.226562 164.941406 297.054688 " fill-opacity="1" fill-rule="nonzero"/></g></g><g clip-path="url(#id21)"><g clip-path="url(#id22)"><path fill="#42f9ff" d="M 168.878906 297.054688 C 168.878906 286.054688 177.796875 277.136719 188.792969 277.136719 C 199.792969 277.136719 208.710938 286.054688 208.710938 297.054688 C 208.710938 308.050781 199.792969 316.96875 188.792969 316.96875 C 177.796875 316.96875 168.878906 308.050781 168.878906 297.054688 " fill-opacity="1" fill-rule="nonzero"/></g></g><g clip-path="url(#id23)"><g clip-path="url(#id24)"><path fill="#474ca8" d="M 143.300781 182.488281 C 143.300781 157.359375 163.667969 136.992188 188.792969 136.992188 C 213.921875 136.992188 234.289062 157.359375 234.289062 182.488281 C 234.289062 207.613281 213.921875 227.984375 188.792969 227.984375 C 163.667969 227.984375 143.300781 207.613281 143.300781 182.488281 " fill-opacity="1" fill-rule="nonzero"/></g></g><g clip-path="url(#id25)"><g clip-path="url(#id26)"><path fill="#42f9ff" d="M 227.042969 178.382812 C 216.695312 173.359375 207.742188 173.921875 197.863281 178.382812 C 201.796875 163.917969 222.589844 163.46875 227.042969 178.382812 " fill-opacity="1" fill-rule="nonzero"/></g></g><g clip-path="url(#id27)"><g clip-path="url(#id28)"><path fill="#42f9ff" d="M 183.984375 199.851562 C 195.382812 201.410156 203.714844 198.09375 211.71875 190.78125 C 212.476562 205.75 192.851562 212.644531 183.984375 199.851562 " fill-opacity="1" fill-rule="nonzero"/></g></g><g clip-path="url(#id29)"><g clip-path="url(#id30)"><path fill="#42f9ff" d="M 181.082031 178.382812 C 170.734375 173.359375 161.78125 173.921875 151.902344 178.382812 C 155.832031 163.917969 176.628906 163.46875 181.082031 178.382812 " fill-opacity="1" fill-rule="nonzero"/></g></g><g clip-path="url(#id31)"><g clip-path="url(#id32)"><path fill="#636cdf" d="M 247.074219 258.628906 C 246.78125 258.628906 246.480469 258.578125 246.167969 258.457031 C 240.175781 256.175781 233.355469 254.878906 226.101562 254.878906 C 225.191406 254.878906 224.296875 254.925781 223.40625 254.980469 C 223.371094 254.980469 223.339844 254.984375 223.308594 254.984375 C 222.746094 254.984375 222.222656 254.6875 221.933594 254.203125 L 218.074219 247.710938 C 217.519531 246.78125 218.027344 245.574219 219.082031 245.328125 C 221.335938 244.796875 223.683594 244.507812 226.101562 244.507812 C 235.101562 244.507812 243.191406 248.34375 248.859375 254.460938 C 250.398438 256.125 249.050781 258.632812 247.074219 258.628906 " fill-opacity="1" fill-rule="nonzero"/></g></g><g clip-path="url(#id33)"><g clip-path="url(#id34)"><path fill="#636cdf" d="M 131.753906 258.628906 C 129.773438 258.628906 128.425781 256.125 129.964844 254.460938 C 135.632812 248.34375 143.722656 244.507812 152.722656 244.507812 C 155.140625 244.507812 157.488281 244.796875 159.742188 245.328125 C 160.796875 245.574219 161.308594 246.78125 160.753906 247.710938 L 156.894531 254.203125 C 156.605469 254.6875 156.082031 254.984375 155.519531 254.984375 C 155.488281 254.984375 155.453125 254.980469 155.417969 254.980469 C 154.527344 254.925781 153.636719 254.878906 152.722656 254.878906 C 145.472656 254.878906 138.648438 256.175781 132.65625 258.457031 C 132.347656 258.578125 132.042969 258.628906 131.753906 258.628906 " fill-opacity="1" fill-rule="nonzero"/></g></g><g clip-path="url(#id35)"><g clip-path="url(#id36)"><path fill="#84c4ff" d="M 153.445312 139.894531 C 151.773438 139.894531 150.671875 137.640625 152.222656 136.410156 C 162.269531 128.433594 174.964844 123.65625 188.792969 123.65625 C 202.625 123.65625 215.316406 128.433594 225.367188 136.410156 C 226.917969 137.640625 225.816406 139.894531 224.144531 139.894531 C 223.871094 139.894531 223.582031 139.832031 223.289062 139.699219 C 213.0625 135.039062 201.3125 132.375 188.792969 132.375 C 176.277344 132.375 164.527344 135.039062 154.296875 139.699219 C 154.003906 139.835938 153.71875 139.894531 153.445312 139.894531 " fill-opacity="1" fill-rule="nonzero"/></g></g><g clip-path="url(#id37)"><g clip-path="url(#id38)"><path fill="#373a98" d="M 188.792969 225.195312 C 176.203125 225.195312 164.835938 220.058594 156.605469 211.785156 C 155.746094 210.921875 156.476562 209.585938 157.53125 209.585938 C 157.695312 209.585938 157.867188 209.621094 158.046875 209.695312 C 167.121094 213.457031 177.601562 215.621094 188.792969 215.621094 C 199.988281 215.621094 210.464844 213.457031 219.542969 209.695312 C 219.71875 209.621094 219.894531 209.585938 220.058594 209.585938 C 221.113281 209.585938 221.839844 210.921875 220.984375 211.785156 C 212.753906 220.058594 201.386719 225.195312 188.792969 225.195312 " fill-opacity="1" fill-rule="nonzero"/></g></g><g clip-path="url(#id39)"><g clip-path="url(#id40)"><path fill="#636cdf" d="M 215.914062 159.589844 C 215.539062 159.589844 215.152344 159.515625 214.753906 159.363281 C 207.089844 156.363281 198.359375 154.65625 189.078125 154.65625 C 179.800781 154.65625 171.070312 156.363281 163.40625 159.363281 C 163.007812 159.519531 162.621094 159.589844 162.246094 159.589844 C 159.710938 159.589844 158.011719 156.269531 159.992188 154.074219 C 167.242188 146.054688 177.582031 141.03125 189.078125 141.03125 C 200.578125 141.03125 210.917969 146.054688 218.167969 154.074219 C 220.148438 156.269531 218.449219 159.589844 215.914062 159.589844 " fill-opacity="1" fill-rule="nonzero"/></g></g><g clip-path="url(#id41)"><g clip-path="url(#id42)"><path fill="#474ca8" d="M 247.953125 205.910156 C 247.492188 205.910156 247.035156 205.910156 246.574219 205.910156 C 243.375 190.457031 243.375 174.515625 246.574219 159.066406 C 247.035156 159.066406 247.492188 159.066406 247.953125 159.066406 C 260.394531 159.039062 271.078125 169.550781 271.375 182.488281 C 271.078125 195.425781 260.394531 205.933594 247.953125 205.910156 " fill-opacity="1" fill-rule="nonzero"/></g></g><g clip-path="url(#id43)"><g clip-path="url(#id44)"><path fill="#636cdf" d="M 264.785156 178.023438 C 264.523438 178.023438 264.253906 177.976562 263.984375 177.871094 C 260.027344 176.285156 255.515625 174.976562 250.613281 174.007812 C 249.683594 173.824219 249.035156 173.070312 249.101562 172.179688 C 249.304688 169.464844 249.589844 166.75 249.953125 164.046875 C 250.097656 163 251.109375 162.140625 252.117188 162.140625 C 252.285156 162.140625 252.449219 162.164062 252.609375 162.214844 C 258.976562 164.160156 264.230469 169.132812 266.742188 175.484375 C 267.242188 176.765625 266.121094 178.023438 264.785156 178.023438 " fill-opacity="1" fill-rule="nonzero"/></g></g><g clip-path="url(#id45)"><g clip-path="url(#id46)"><path fill="#b0b5e6" d="M 249.058594 205.882812 C 251.542969 205.761719 253.953125 205.226562 256.207031 204.332031 C 253.980469 205.226562 251.585938 205.765625 249.058594 205.882812 " fill-opacity="1" fill-rule="nonzero"/></g></g><g clip-path="url(#id47)"><g clip-path="url(#id48)"><path fill="#373a98" d="M 247.980469 205.910156 C 247.972656 205.910156 247.960938 205.910156 247.953125 205.910156 C 247.800781 205.910156 247.648438 205.910156 247.5 205.910156 C 247.191406 205.910156 246.882812 205.910156 246.574219 205.910156 C 246.195312 204.066406 245.859375 202.222656 245.570312 200.367188 C 245.507812 199.972656 245.449219 199.578125 245.390625 199.183594 C 243.675781 187.441406 243.777344 175.503906 245.699219 163.785156 C 245.507812 173.910156 246.957031 184.191406 249.347656 194.363281 C 249.890625 196.613281 252.085938 198.191406 254.359375 198.191406 C 254.757812 198.191406 255.15625 198.144531 255.550781 198.042969 C 259.917969 196.925781 266.085938 195.027344 268.824219 192.578125 C 266 197.933594 261.605469 202.167969 256.207031 204.332031 C 253.953125 205.226562 251.542969 205.761719 249.058594 205.882812 C 248.699219 205.898438 248.34375 205.910156 247.980469 205.910156 " fill-opacity="1" fill-rule="nonzero"/></g></g><g clip-path="url(#id49)"><g clip-path="url(#id50)"><path fill="#474ca8" d="M 129.136719 205.910156 C 129.59375 205.910156 130.054688 205.910156 130.511719 205.910156 C 133.710938 190.457031 133.710938 174.515625 130.511719 159.066406 C 130.054688 159.066406 129.59375 159.066406 129.136719 159.066406 C 116.695312 159.039062 106.011719 169.550781 105.714844 182.488281 C 106.011719 195.425781 116.695312 205.933594 129.136719 205.910156 " fill-opacity="1" fill-rule="nonzero"/></g></g><g clip-path="url(#id51)"><g clip-path="url(#id52)"><path fill="#636cdf" d="M 112.304688 178.023438 C 110.96875 178.023438 109.847656 176.765625 110.347656 175.484375 C 112.859375 169.132812 118.113281 164.160156 124.476562 162.214844 C 124.640625 162.164062 124.804688 162.140625 124.972656 162.140625 C 125.980469 162.140625 126.992188 163 127.136719 164.046875 C 127.5 166.75 127.785156 169.464844 127.988281 172.179688 C 128.054688 173.070312 127.40625 173.824219 126.476562 174.007812 C 121.574219 174.976562 117.0625 176.285156 113.105469 177.871094 C 112.835938 177.976562 112.566406 178.023438 112.304688 178.023438 " fill-opacity="1" fill-rule="nonzero"/></g></g><g clip-path="url(#id53)"><g clip-path="url(#id54)"><path fill="#435fcf" d="M 130.511719 205.910156 C 130.371094 205.910156 130.230469 205.910156 130.089844 205.910156 C 130.230469 205.910156 130.371094 205.910156 130.511719 205.910156 C 130.519531 205.878906 130.523438 205.851562 130.53125 205.820312 C 130.523438 205.851562 130.519531 205.878906 130.511719 205.910156 " fill-opacity="1" fill-rule="nonzero"/></g></g><g clip-path="url(#id55)"><g clip-path="url(#id56)"><path fill="#b0b5e6" d="M 128.03125 205.882812 C 125.507812 205.765625 123.113281 205.226562 120.886719 204.332031 C 123.140625 205.226562 125.546875 205.761719 128.03125 205.882812 " fill-opacity="1" fill-rule="nonzero"/></g></g><g clip-path="url(#id57)"><g clip-path="url(#id58)"><path fill="#435fcf" d="M 130.539062 205.785156 C 130.542969 205.765625 130.546875 205.75 130.546875 205.734375 C 130.546875 205.75 130.542969 205.765625 130.539062 205.785156 M 130.558594 205.691406 C 130.5625 205.675781 130.5625 205.660156 130.566406 205.644531 C 130.5625 205.660156 130.5625 205.675781 130.558594 205.691406 M 130.578125 205.601562 C 130.578125 205.585938 130.582031 205.570312 130.585938 205.558594 C 130.582031 205.570312 130.578125 205.585938 130.578125 205.601562 M 130.59375 205.507812 C 130.597656 205.496094 130.601562 205.480469 130.601562 205.46875 C 130.601562 205.480469 130.597656 205.496094 130.59375 205.507812 M 130.613281 205.417969 C 130.617188 205.40625 130.617188 205.394531 130.621094 205.382812 C 130.617188 205.394531 130.617188 205.40625 130.613281 205.417969 M 130.632812 205.328125 C 130.632812 205.316406 130.636719 205.304688 130.636719 205.296875 C 130.636719 205.304688 130.632812 205.316406 130.632812 205.328125 M 130.648438 205.238281 C 130.652344 205.226562 130.652344 205.21875 130.65625 205.207031 C 130.652344 205.21875 130.652344 205.226562 130.648438 205.238281 M 130.667969 205.144531 C 130.667969 205.136719 130.671875 205.128906 130.671875 205.121094 C 130.671875 205.128906 130.667969 205.136719 130.667969 205.144531 M 130.6875 205.054688 C 130.6875 205.050781 130.6875 205.042969 130.691406 205.039062 C 130.6875 205.042969 130.6875 205.050781 130.6875 205.054688 M 130.703125 204.964844 C 130.703125 204.960938 130.707031 204.957031 130.707031 204.953125 C 130.707031 204.957031 130.703125 204.960938 130.703125 204.964844 M 130.722656 204.875 C 130.722656 204.875 130.722656 204.871094 130.722656 204.871094 C 130.722656 204.871094 130.722656 204.875 130.722656 204.875 M 131.550781 200.160156 C 131.554688 200.136719 131.558594 200.117188 131.5625 200.09375 C 131.558594 200.117188 131.554688 200.140625 131.550781 200.160156 M 131.5625 200.09375 C 131.601562 199.851562 131.636719 199.609375 131.671875 199.363281 C 131.636719 199.609375 131.601562 199.851562 131.5625 200.09375 M 131.671875 199.359375 C 131.675781 199.347656 131.675781 199.339844 131.679688 199.328125 C 131.675781 199.339844 131.675781 199.347656 131.671875 199.359375 " fill-opacity="1" fill-rule="nonzero"/></g></g><g clip-path="url(#id59)"><g clip-path="url(#id60)"><path fill="#577ce6" d="M 132.488281 172.613281 C 132.488281 172.609375 132.488281 172.609375 132.488281 172.605469 C 132.488281 172.609375 132.488281 172.609375 132.488281 172.613281 M 132.464844 172.339844 C 132.464844 172.335938 132.464844 172.328125 132.464844 172.324219 C 132.464844 172.328125 132.464844 172.335938 132.464844 172.339844 M 132.460938 172.265625 C 132.460938 172.261719 132.457031 172.257812 132.457031 172.253906 C 132.457031 172.257812 132.460938 172.261719 132.460938 172.265625 M 132.449219 172.132812 C 132.445312 172.132812 132.445312 172.128906 132.445312 172.125 C 132.445312 172.128906 132.445312 172.132812 132.449219 172.132812 M 132.441406 172.074219 C 132.441406 172.0625 132.441406 172.050781 132.4375 172.042969 C 132.441406 172.050781 132.441406 172.0625 132.441406 172.074219 M 132.433594 171.996094 C 132.433594 171.984375 132.433594 171.96875 132.433594 171.960938 C 132.433594 171.96875 132.433594 171.984375 132.433594 171.996094 M 132.425781 171.890625 C 132.421875 171.875 132.421875 171.859375 132.421875 171.84375 C 132.421875 171.859375 132.421875 171.875 132.425781 171.890625 M 132.417969 171.804688 C 132.417969 171.789062 132.414062 171.773438 132.414062 171.761719 C 132.414062 171.773438 132.417969 171.789062 132.417969 171.804688 M 132.410156 171.722656 C 132.40625 171.703125 132.40625 171.6875 132.40625 171.667969 C 132.40625 171.6875 132.40625 171.703125 132.410156 171.722656 M 132.402344 171.640625 C 132.398438 171.617188 132.398438 171.589844 132.394531 171.5625 C 132.398438 171.589844 132.398438 171.617188 132.402344 171.640625 M 132.394531 171.539062 C 132.390625 171.519531 132.386719 171.496094 132.386719 171.476562 C 132.386719 171.5 132.390625 171.519531 132.394531 171.539062 M 132.382812 171.453125 C 132.382812 171.429688 132.378906 171.402344 132.378906 171.378906 C 132.378906 171.40625 132.382812 171.429688 132.382812 171.453125 M 132.375 171.371094 C 132.375 171.34375 132.371094 171.3125 132.367188 171.285156 C 132.371094 171.3125 132.375 171.34375 132.375 171.371094 M 132.367188 171.269531 C 132.363281 171.246094 132.363281 171.222656 132.359375 171.199219 C 132.363281 171.222656 132.363281 171.246094 132.367188 171.269531 M 132.359375 171.183594 C 132.347656 171.09375 132.339844 171.003906 132.332031 170.917969 C 132.339844 171.003906 132.347656 171.09375 132.359375 171.183594 M 132.332031 170.910156 C 132.089844 168.53125 131.777344 166.152344 131.390625 163.785156 C 131.777344 166.152344 132.089844 168.527344 132.332031 170.910156 " fill-opacity="1" fill-rule="nonzero"/></g></g><g clip-path="url(#id61)"><g clip-path="url(#id62)"><path fill="#373a98" d="M 129.109375 205.910156 C 128.746094 205.910156 128.390625 205.898438 128.03125 205.882812 C 125.546875 205.761719 123.140625 205.226562 120.886719 204.332031 C 115.488281 202.171875 111.089844 197.933594 108.265625 192.578125 C 111.003906 195.027344 117.171875 196.925781 121.539062 198.042969 C 121.933594 198.144531 122.332031 198.191406 122.730469 198.191406 C 125.003906 198.191406 127.199219 196.613281 127.742188 194.363281 C 130.132812 184.191406 131.582031 173.910156 131.390625 163.785156 C 131.777344 166.152344 132.089844 168.53125 132.332031 170.910156 C 132.332031 170.914062 132.332031 170.914062 132.332031 170.917969 C 132.339844 171.003906 132.347656 171.09375 132.359375 171.183594 C 132.359375 171.1875 132.359375 171.191406 132.359375 171.199219 C 132.363281 171.222656 132.363281 171.246094 132.367188 171.269531 C 132.367188 171.277344 132.367188 171.28125 132.367188 171.285156 C 132.371094 171.3125 132.375 171.34375 132.375 171.371094 C 132.375 171.375 132.378906 171.375 132.378906 171.378906 C 132.378906 171.402344 132.382812 171.429688 132.382812 171.453125 C 132.386719 171.460938 132.386719 171.46875 132.386719 171.476562 C 132.386719 171.496094 132.390625 171.519531 132.394531 171.539062 C 132.394531 171.546875 132.394531 171.554688 132.394531 171.5625 C 132.398438 171.589844 132.398438 171.617188 132.402344 171.640625 C 132.402344 171.648438 132.40625 171.660156 132.40625 171.667969 C 132.40625 171.6875 132.40625 171.703125 132.410156 171.722656 C 132.410156 171.734375 132.414062 171.746094 132.414062 171.761719 C 132.414062 171.773438 132.417969 171.789062 132.417969 171.804688 C 132.417969 171.816406 132.421875 171.832031 132.421875 171.84375 C 132.421875 171.859375 132.421875 171.875 132.425781 171.890625 C 132.429688 171.914062 132.429688 171.9375 132.433594 171.960938 C 132.433594 171.96875 132.433594 171.984375 132.433594 171.996094 C 132.4375 172.011719 132.4375 172.027344 132.4375 172.042969 C 132.441406 172.050781 132.441406 172.0625 132.441406 172.074219 C 132.445312 172.089844 132.445312 172.105469 132.445312 172.125 C 132.445312 172.128906 132.445312 172.132812 132.449219 172.132812 C 132.453125 172.175781 132.453125 172.214844 132.457031 172.253906 C 132.457031 172.257812 132.460938 172.261719 132.460938 172.265625 C 132.460938 172.285156 132.460938 172.304688 132.464844 172.324219 C 132.464844 172.328125 132.464844 172.335938 132.464844 172.339844 C 132.472656 172.429688 132.480469 172.515625 132.488281 172.605469 C 132.488281 172.609375 132.488281 172.609375 132.488281 172.613281 C 133.25 181.460938 132.984375 190.378906 131.699219 199.183594 C 131.691406 199.230469 131.683594 199.277344 131.679688 199.328125 C 131.675781 199.339844 131.675781 199.347656 131.671875 199.359375 C 131.671875 199.363281 131.671875 199.363281 131.671875 199.363281 C 131.636719 199.609375 131.601562 199.851562 131.5625 200.09375 C 131.558594 200.117188 131.554688 200.136719 131.550781 200.160156 C 131.542969 200.230469 131.53125 200.300781 131.519531 200.367188 C 131.285156 201.871094 131.019531 203.375 130.722656 204.871094 C 130.722656 204.871094 130.722656 204.875 130.722656 204.875 C 130.714844 204.902344 130.710938 204.925781 130.707031 204.953125 C 130.707031 204.957031 130.703125 204.960938 130.703125 204.964844 C 130.699219 204.988281 130.695312 205.015625 130.691406 205.039062 C 130.6875 205.042969 130.6875 205.050781 130.6875 205.054688 C 130.683594 205.078125 130.675781 205.101562 130.671875 205.121094 C 130.671875 205.128906 130.667969 205.136719 130.667969 205.144531 C 130.664062 205.167969 130.660156 205.1875 130.65625 205.207031 C 130.652344 205.21875 130.652344 205.226562 130.648438 205.238281 C 130.644531 205.257812 130.640625 205.277344 130.636719 205.296875 C 130.636719 205.304688 130.632812 205.316406 130.632812 205.328125 C 130.628906 205.34375 130.625 205.363281 130.621094 205.382812 C 130.617188 205.394531 130.617188 205.40625 130.613281 205.417969 C 130.609375 205.433594 130.605469 205.453125 130.601562 205.46875 C 130.601562 205.480469 130.597656 205.496094 130.59375 205.507812 C 130.59375 205.523438 130.589844 205.539062 130.585938 205.558594 C 130.582031 205.570312 130.578125 205.585938 130.578125 205.601562 C 130.574219 205.613281 130.570312 205.628906 130.566406 205.644531 C 130.5625 205.660156 130.5625 205.675781 130.558594 205.691406 C 130.554688 205.707031 130.550781 205.71875 130.546875 205.734375 C 130.546875 205.75 130.542969 205.765625 130.539062 205.785156 C 130.535156 205.796875 130.535156 205.808594 130.53125 205.820312 C 130.523438 205.851562 130.519531 205.878906 130.511719 205.910156 C 130.371094 205.910156 130.230469 205.910156 130.089844 205.910156 C 129.773438 205.910156 129.453125 205.910156 129.136719 205.910156 C 129.128906 205.910156 129.117188 205.910156 129.109375 205.910156 " fill-opacity="1" fill-rule="nonzero"/></g></g><g clip-path="url(#id63)"><path fill="#e4edff" d="M 187.625 80.574219 C 128.597656 80.574219 80.578125 128.597656 80.578125 187.625 C 80.578125 246.65625 128.597656 294.679688 187.625 294.679688 C 246.65625 294.679688 294.679688 246.65625 294.679688 187.625 C 294.679688 128.597656 246.65625 80.574219 187.625 80.574219 Z M 187.625 302.375 C 124.355469 302.375 72.875 250.902344 72.875 187.625 C 72.875 124.355469 124.355469 72.875 187.625 72.875 C 250.902344 72.875 302.375 124.355469 302.375 187.625 C 302.375 250.902344 250.902344 302.375 187.625 302.375 " fill-opacity="1" fill-rule="nonzero"/></g></svg>